<?xml version="1.0" encoding="UTF-8"?>
<svg xmlns="http://www.w3.org/2000/svg" width="320" height="493" viewBox="0 0 640 986">
  <rect width="640" height="986" fill="#0a1923"/>
  <circle cx="320" cy="356.64" r="776.34" fill="#192e45"/>
  <path d="M1075.12,516.50L1078.13,510.85L1080.81,500.24L1082.19,490.83L1084.66,479.64L1086.52,468.61L1087.88,453.71L1089.91,441.43L1090.47,434.01L1091.19,433.23L1091.70,430.48L1092.58,424.61L1093.45,419.88L1093.70,418.52L1094.69,405.86L1094.81,405.30L1095.37,394.83ZM1096.04,377.69L1096.25,367.83ZM1063.42,580.22L1065.23,572.34L1066.34,564.79L1069.58,551.79L1068.22,554.67L1071.09,540.53L1075.12,516.50ZM520.14,758.60L517.49,768.07L520.92,778.74L530.38,783.42L530.04,790.18L522.77,795.10L521.52,803.46L511.09,817.13L507.21,816.03L506.71,810.70L493.98,804.23L491.84,792.44L493.49,774.47L496.44,765.83L492.51,762.16L490.79,753.81L500.29,738.98L501.87,743.93L507.89,740.61L512.91,747.20L518.37,749.12L520.14,758.60ZM935.98,607.55L952.54,590.06L955.31,593.75L959.90,593.62L957.88,601.13L964.25,602.94L961.30,612.63L966.24,613.85L971.27,612.48L971.65,626.34L967.66,630.82L963.00,623.40L963.00,620.16L957.95,624.87L954.38,622.36L951.95,625.10L947.08,622.99L937.80,625.27L938.52,613.65L935.98,607.55ZM432.24,582.36L431.06,595.66L418.48,596.68L423.05,603.31L416.23,624.27L412.06,629.87L392.23,631.84L380.87,639.50L361.95,637.79L329.19,630.28L324.07,619.29L301.52,624.69L298.83,630.66L285.04,625.89L273.42,624.69L263.23,618.53L266.83,610.87L266.06,605.16L272.91,603.64L284.26,612.87L287.58,604.50L307.56,606.19L323.78,600.47L334.64,601.39L341.75,607.88L343.82,602.38L340.46,581.31L348.49,577.02L356.19,561.68L372.96,571.75L385.19,557.76L392.92,554.91L410.43,563.98L420.76,561.57L431.19,566.99L429.58,571.28L432.24,582.36ZM954.38,622.36L957.95,624.87L963.00,620.16L963.00,623.40L967.66,630.82L959.92,635.47L953.98,631.33L951.95,625.10L954.38,622.36ZM979.15,566.05L983.82,562.93L985.18,555.66L990.44,540.74L996.40,546.62L1002.10,556.17L1006.41,552.18L1009.43,554.41L1002.01,564.88L1000.85,582.48L999.32,591.32L995.83,599.93L996.03,609.31L993.60,613.01L987.46,609.58L990.84,595.96L987.77,593.20L983.98,598.73L971.65,626.34L971.27,612.48L966.24,613.85L961.30,612.63L964.25,602.94L957.88,601.13L959.90,593.62L955.31,593.75L952.54,590.06L955.15,583.95L964.05,582.69L970.08,578.44L971.39,574.48L965.14,567.61L967.75,561.91L970.87,559.79L979.15,566.05ZM136.05,467.20L151.00,471.72L170.87,466.80L183.17,482.99L194.36,491.97L190.64,514.52L184.97,515.27L181.56,533.73L163.69,516.62L152.58,517.96L139.01,500.43L130.42,485.72L120.84,483.85L118.95,471.62L136.05,467.20ZM563.42,684.54L570.26,695.02L578.54,691.23L595.27,692.06L626.37,686.12L636.22,676.34L659.84,663.23L675.17,669.02L687.04,668.28L677.50,682.80L671.30,704.23L678.55,717.17L660.94,719.01L640.29,733.24L640.53,746.14L621.49,753.69L606.20,748.44L589.16,759.61L573.01,762.40L570.94,745.37L559.66,739.00L563.14,734.48L560.64,731.72L564.00,722.30L571.96,712.00L560.82,702.04L558.37,692.06L563.42,684.54ZM481.66,679.08L489.81,677.96L484.66,691.62L495.94,701.36L493.11,715.26L487.82,717.23L483.66,720.37L476.45,727.85L473.49,743.58L452.93,735.34L443.98,724.42L435.05,718.90L424.22,709.02L419.03,700.35L407.46,687.32L412.00,674.56L420.39,680.86L425.20,674.25L435.85,672.70L455.57,675.83L471.21,673.71L481.66,679.08ZM550.81,371.63L569.16,368.82L587.38,352.39L588.40,332.47L601.18,318.81L596.69,304.01L606.24,296.25L622.00,279.50L641.55,283.93L645.78,291.62L653.61,285.58L671.51,289.40L676.79,304.36L675.32,314.14L690.60,332.68L698.67,336.67L699.02,342.81L711.40,345.17L718.07,352.27L713.30,361.28L699.63,364.23L697.04,368.20L703.28,377.73L711.71,396.99L697.40,403.36L693.40,411.99L695.28,428.45L687.69,427.41L671.78,433.47L665.73,427.18L659.85,434.63L652.17,431.69L637.47,434.61L615.25,431.48L595.56,432.90L580.66,436.54L571.07,447.58L561.76,450.55L559.58,435.67L551.59,421.04L562.44,412.17L560.76,398.65L553.68,386.59L550.81,371.63ZM-406.45,83.19L-410.96,93.70L-410.09,92.41L-412.76,100.79L-414.34,104.36L-417.65,115.43L-416.89,114.49L-420.29,127.15L-424.21,137.75L-424.20,139.98L-427.38,150.31L-431.07,163.63L-434.75,175.61L-434.25,172.65L-432.33,164.25L-428.75,151.91L-427.65,147.59L-429.73,153.46L-428.34,148.31L-427.58,145.80L-424.43,134.49L-422.27,127.53ZM-415.19,107.06L-415.13,105.76L-412.52,98.26L-411.40,94.20L-403.74,74.42L-400.97,68.74L-400.00,68.45L-401.12,72.28L-402.86,75.78L-406.45,83.19ZM-215.43,-205.54L-217.36,-204.05L-220.78,-200.68ZM-160.71,-253.57L-166.35,-249.16L-175.04,-242.47L-183.48,-235.85L-189.76,-229.86L-191.70,-228.86L-198.62,-222.84L-198.96,-221.38ZM-165.15,-254.51L-162.70,-256.52L-154.48,-263.01L-146.87,-268.78L-147.08,-268.44L-153.55,-263.36L-160.44,-258.08L-162.32,-256.64L-165.15,-254.51ZM-82.05,-309.62L-96.06,-299.49L-90.31,-305.01L-103.75,-296.36L-112.81,-289.21L-125.59,-280.17L-119.73,-285.84L-110.03,-293.63L-93.82,-304.95L-99.50,-301.66L-106.32,-297.45L-118.12,-289.55L-126.01,-283.93L-131.74,-279.48L-141.96,-271.94L-148.60,-266.63L-151.40,-262.94L-148.19,-264.28L-140.21,-269.90L-145.55,-264.96ZM-223.53,-199.24L-223.45,-200.13L-233.17,-191.24L-238.08,-186.67L-237.67,-187.58L-245.10,-179.90L-256.45,-167.62L-262.24,-161.04L-268.86,-153.54L-279.00,-141.35L-294.62,-121.38L-299.37,-115.29L-308.18,-103.32L-306.44,-105.63L-295.96,-118.76L-291.78,-123.34L-304.82,-105.99L-323.10,-79.66L-339.10,-54.65L-344.78,-46.28L-353.72,-30.03L-361.42,-15.55L-367.20,-2.27L-371.47,6.94L-380.11,24.07L-382.64,31.10L-386.66,40.25L-396.27,60.62L-397.96,62.51L-399.21,63.92L-398.06,59.25L-400.26,64.71L-396.26,56.38ZM-36.60,-334.08L-30.62,-338.77L-37.57,-335.62L-47.56,-330.31L-68.68,-317.87L-72.27,-314.60L-82.05,-309.62ZM29.86,-363.78L24.09,-361.43ZM-61.22,-323.06L-66.62,-320.09L-64.13,-322.01L-61.67,-323.86L-61.91,-324.15L-60.19,-325.19L-48.18,-331.96L-41.63,-335.32L-41.36,-335.29L-47.72,-331.07L-61.22,-323.06ZM-37.76,-338.15L-50.44,-331.34L-38.96,-337.50L-37.45,-337.86L-59.98,-325.56L-71.29,-319.26L-70.51,-319.12L-65.13,-321.71L-78.72,-312.94L-90.07,-305.46L-98.38,-300.37L-97.31,-299.63L-110.90,-290.32L-121.80,-280.87L-130.52,-274.06L-149.11,-259.95L-154.80,-258.01L-169.99,-243.75L-176.01,-236.77L-193.97,-219.87L-196.77,-214.56L-208.69,-204.94L-225.72,-192.77L-216.83,-202.84L-198.37,-221.16L-198.03,-222.95L-206.98,-215.30L-218.30,-204.00L-228.15,-193.19L-233.05,-187.96L-249.31,-170.94L-259.12,-161.18L-252.48,-169.66L-234.98,-189.65L-250.78,-172.48L-261.72,-159.86L-266.91,-154.00L-254.49,-169.51L-240.53,-184.98L-230.29,-195.60L-227.46,-198.41L-215.85,-209.86L-204.57,-220.44L-208.65,-216.59L-201.07,-222.60L-193.52,-229.22L-185.82,-236.69L-191.70,-232.01L-196.08,-228.19L-189.85,-233.71L-183.32,-239.24L-171.35,-248.53L-163.52,-254.82L-156.99,-260.01L-145.34,-269.38L-134.68,-277.72L-132.11,-279.36L-119.10,-288.64L-115.94,-290.97L-108.24,-296.23L-111.75,-293.97L-108.83,-295.94L-94.36,-304.82L-83.07,-311.37L-75.41,-315.49L-67.35,-320.18L-63.81,-322.91L-59.14,-325.09L-42.45,-334.81L-30.34,-341.69L-26.38,-343.92L-28.42,-342.95L-37.76,-338.15ZM15.18,-360.27L8.05,-357.40L4.00,-356.41L-1.22,-353.86L-5.14,-351.13L-16.66,-345.84L-28.90,-338.52L-28.05,-337.37ZM8.61,-354.88L-0.66,-351.63L12.43,-357.89L15.18,-360.27ZM-24.63,-343.44L-32.36,-338.43L-27.86,-340.24L-12.77,-348.34L-5.32,-352.33L-0.44,-355.11L0.83,-356.14L-5.84,-353.49L-15.26,-349.24L-25.34,-343.58L-24.63,-343.44ZM12.06,-361.70L7.20,-359.32L12.63,-361.44L20.39,-364.64L26.10,-367.39L26.58,-367.91L18.34,-364.46L12.06,-361.70ZM54.27,-378.61L44.54,-374.88L36.06,-371.34L25.55,-366.51L29.06,-367.40L34.89,-369.57L43.73,-373.55L47.63,-374.51L59.60,-379.58L55.94,-378.48L57.09,-379.39L52.30,-377.82L54.27,-378.61ZM75.27,-383.28L68.98,-380.80L68.40,-381.12L64.38,-380.01L56.77,-376.74L52.18,-374.17L62.16,-376.06ZM103.30,-389.11L103.40,-390.03L89.25,-386.18L75.29,-381.34L68.14,-379.49L85.98,-386.34L88.04,-387.76L83.10,-386.35L75.27,-383.28ZM51.14,-377.80L42.83,-374.65L38.34,-372.87L30.44,-369.71L24.20,-367.19L17.48,-364.34L11.73,-361.85L7.87,-360.07L3.14,-357.80L3.92,-357.81L1.70,-356.25L-2.50,-353.82L-11.70,-349.31L-20.15,-345.36L-24.18,-343.74L-25.41,-343.69L-20.53,-346.37L-17.01,-348.56L-12.35,-350.88L-6.11,-353.79L6.42,-359.33L16.65,-363.89L25.50,-367.69L35.59,-371.78L42.93,-374.53L51.17,-377.63L57.23,-379.97L51.14,-377.80ZM120.92,-396.61L111.61,-392.77L110.04,-391.41L112.80,-391.74ZM128.91,-397.64L123.57,-396.69L120.92,-396.61ZM56.75,-379.84L57.25,-380.04L62.70,-381.99L68.25,-383.94L63.46,-382.24L58.56,-380.48L56.75,-379.84ZM102.77,-393.13L104.46,-392.83L113.55,-395.44L115.46,-396.54L112.55,-396.15L106.14,-394.47L102.77,-393.13ZM114.59,-397.39L115.12,-397.18L119.95,-398.18L121.94,-398.85L123.37,-399.67L121.21,-399.14L114.59,-397.39ZM70.84,-384.82L70.56,-384.72L76.53,-386.74L84.09,-389.22L91.58,-391.59L88.06,-390.46L85.63,-389.67L76.78,-386.78L70.84,-384.82ZM85.29,-389.56L77.22,-386.87L83.17,-388.73L92.70,-391.70L99.04,-393.41L101.37,-394.32L108.34,-396.33L114.77,-398.25L107.81,-396.37L95.27,-392.71L85.29,-389.56ZM85.98,-387.82L77.67,-384.96L73.54,-384.15L61.60,-380.82L63.44,-381.80L69.88,-384.26L79.64,-387.54L86.44,-389.62L90.08,-390.57L93.29,-391.80L101.62,-394.32L111.33,-397.03L118.61,-398.77L123.41,-399.81L123.20,-399.54L128.41,-400.85L126.11,-399.77L113.48,-396.42L106.77,-394.25L100.69,-392.16L85.98,-387.82ZM153.37,-396.07L151.99,-394.30L149.60,-392.45L143.86,-389.82L137.43,-388.14L126.05,-386.72L120.62,-386.88L115.18,-385.98L115.67,-384.63L100.95,-382.05L94.33,-381.23L75.71,-376.69L72.67,-377.13L68.37,-376.17L67.91,-377.87L64.15,-375.84L60.68,-375.12L49.20,-370.72L42.50,-368.95L37.90,-368.21L30.13,-365.61L25.60,-364.63L20.75,-362.69L19.40,-361.24L14.29,-359.20L5.77,-357.09L15.50,-362.14L17.89,-363.97L23.15,-366.40L28.10,-368.66L37.25,-372.24L37.85,-372.13L52.69,-377.60L52.98,-377.55L39.96,-372.14L54.95,-377.85L61.42,-380.49L67.83,-382.34L70.07,-382.47L76.89,-384.47L86.86,-387.90L98.14,-391.19L94.00,-389.07L90.82,-387.87L97.15,-388.96L101.86,-391.15L104.51,-393.10L113.82,-396.01L123.27,-398.51L130.82,-400.55L138.17,-402.19L140.47,-402.24L139.92,-401.78L141.51,-401.47L148.47,-402.37L146.37,-401.52L139.32,-399.67L151.00,-401.76L153.91,-401.84L155.61,-401.47L155.52,-400.20L152.85,-399.42L156.35,-398.85L154.74,-397.47L153.37,-396.07ZM266.06,605.16L266.83,610.87L263.23,618.53L273.42,624.69L285.04,625.89L283.09,638.74L272.94,643.69L256.08,639.10L250.90,651.38L239.98,651.76L236.14,646.63L223.09,656.22L212.07,656.84L202.50,649.46L195.21,635.21L184.28,639.03L185.18,624.98L202.24,608.79L201.84,600.63L211.91,604.41L218.25,599.41L237.33,600.90L242.13,594.18L266.06,605.16ZM768.53,834.91L769.81,834.19L772.74,828.38L785.49,822.30L801.66,808.43L789.39,822.62L790.38,825.47L788.57,825.78L785.11,828.90L782.51,829.84L781.58,831.00L781.38,829.29L780.19,828.78L776.79,830.28L771.83,834.26L768.53,834.91ZM790.38,825.47L790.80,826.68L772.10,843.27L763.51,845.14L759.88,839.68L768.53,834.91L771.83,834.26L776.79,830.28L780.19,828.78L781.38,829.29L781.58,831.00L782.51,829.84L785.11,828.90L788.57,825.78L790.38,825.47ZM431.19,566.99L420.76,561.57L410.43,563.98L392.92,554.91L385.19,557.76L372.96,571.75L356.19,561.68L343.47,547.68L332.10,539.80L329.70,525.66L325.82,515.64L341.67,508.11L349.66,499.49L365.13,492.49L370.40,485.80L376.19,489.53L385.70,485.56L396.28,496.05L412.52,498.07L411.55,507.47L423.61,513.66L426.43,504.71L441.38,507.32L443.98,517.66L460.09,518.20L470.98,533.56L464.55,534.27L461.54,540.56L456.64,542.49L455.62,550.13L451.52,552.08L451.08,555.19L443.77,559.27L434.01,559.53L431.19,566.99ZM278.81,351.20L278.81,364.83L299.15,373.45L298.77,385.94L319.63,379.48L331.05,369.79L354.25,383.35L364.19,394.29L369.49,411.97L363.93,421.47L371.85,433.65L377.60,452.03L376.28,464.00L385.70,485.56L376.19,489.53L370.40,485.80L365.13,492.49L349.66,499.49L341.67,508.11L325.82,515.64L329.70,525.66L332.10,539.80L343.47,547.68L356.19,561.68L348.49,577.02L340.46,581.31L343.82,602.38L341.75,607.88L334.64,601.39L323.78,600.47L307.56,606.19L287.58,604.50L284.26,612.87L272.91,603.64L266.06,605.16L242.13,594.18L237.33,600.90L218.25,599.41L221.88,576.60L233.86,554.88L202.42,546.51L192.55,536.96L194.54,522.47L190.64,514.52L194.36,491.97L192.97,455.93L205.57,456.95L211.61,444.39L218.56,413.02L215.41,400.97L219.83,393.85L236.98,392.98L240.42,400.90L255.04,384.28L250.93,370.92L250.87,350.93L265.82,356.17L278.81,351.20ZM334.16,329.55L322.33,358.21L301.47,338.16L298.90,323.47L327.75,311.89L334.16,329.55ZM299.41,299.52L294.44,312.76L288.70,308.82L273.88,333.88L278.81,351.20L265.82,356.17L250.87,350.93L243.75,331.02L245.05,295.01L248.74,285.66L254.73,275.35L271.52,273.77L278.49,264.26L293.87,254.67L292.86,272.73L286.95,284.09L289.03,294.01L299.41,299.52ZM320.54,1091.23L248.49,1102.60L191.51,1107.73L164.21,1105.46L142.61,1101.73L140.93,1098.34L131.44,1095.50L118.52,1091.11L112.67,1087.20L40.79,1053.45L-30.21,1010.91L-106.40,953.74L-106.77,951.61L-107.01,950.80L-111.24,935.86L-84.63,939.93L-66.57,946.01L-51.81,948.70L-45.73,944.44L-23.77,947.20L-24.51,936.14L-13.09,938.81L-4.63,935.97L22.05,941.64L25.25,936.32L19.41,931.12L10.67,910.47L8.66,898.93L0.08,884.39L19.74,879.60L42.70,882.33L56.10,877.31L77.05,875.81L114.79,879.57L152.37,883.98L164.00,888.79L185.66,883.02L210.54,885.45L220.09,891.35L236.11,891.29L231.44,901.92L235.37,921.81L230.12,937.56L216.02,946.83L218.41,960.67L237.60,972.62L237.91,976.74L252.33,984.43L262.86,1012.77L270.59,1025.59L272.00,1031.88L268.37,1042.12L270.19,1047.75L267.60,1054.01L269.84,1061.11L261.29,1065.08L274.67,1073.16L275.69,1077.32L283.67,1082.77L293.78,1081.45L311.02,1085.90L320.54,1091.23ZM792.60,905.84L786.57,913.91L780.31,925.72L773.86,934.73L769.31,939.02L764.87,938.17L758.73,936.71L750.93,924.01L748.83,926.18L752.74,936.64L759.81,943.67L766.47,954.53L770.27,956.85L773.03,959.58L782.19,961.61L778.28,965.12L775.69,970.56L788.93,966.71L790.48,966.62L728.56,1003.74L661.85,1035.41L587.15,1062.52L597.92,1030.32L606.73,988.29L602.24,978.97L608.82,968.45L606.41,962.96L614.83,953.34L642.23,944.54L661.08,942.04L680.02,939.35L688.65,938.20L704.19,927.46L712.68,919.79L729.38,911.32L742.13,907.28L745.76,912.45L750.81,905.51L764.41,901.99L777.80,895.76L786.93,887.43L792.60,905.84ZM-133.57,684.86L-131.53,667.21L-137.96,652.87L-110.99,644.41L-88.69,657.91L-63.01,666.77L-42.44,678.20L-25.72,681.84L7.35,691.97L15.09,704.77L53.75,726.42L61.87,722.24L86.06,739.48L111.95,740.58L112.70,756.43L91.10,770.14L62.70,769.84L60.56,777.96L46.93,788.73L38.37,806.39L46.78,821.85L34.30,828.97L29.80,842.28L13.79,842.27L-0.71,854.31L-26.91,846.36L-46.18,839.38L-58.36,842.10L-65.52,846.85L-75.12,841.49L-82.58,831.87L-88.47,817.89L-106.21,807.28L-107.96,799.67L-101.19,794.63L-98.69,789.83L-105.25,780.60L-100.07,768.07L-107.45,751.20L-99.31,752.61L-98.32,741.77L-95.16,739.50L-94.28,720.62L-85.21,717.25L-89.93,702.59L-100.87,697.47L-104.24,699.40L-115.17,695.00L-119.04,680.70L-126.67,681.29L-133.57,684.86ZM544.88,236.54L543.18,216.23L537.70,221.41L524.71,210.83L519.81,191.55L539.06,179.35L558.52,171.46L577.12,174.12L593.16,170.27L596.96,175.57L590.28,196.69L602.28,226.84L597.56,238.80L583.71,241.29L566.60,231.27L558.35,228.32L544.88,236.54ZM510.56,-117.78L516.11,-99.22L540.16,-83.60L537.59,-61.45L563.50,-31.33L564.20,-5.11L583.49,15.05L584.96,35.59L611.79,52.82L612.19,69.46L605.28,89.94L585.86,136.44L558.60,143.65L533.32,159.84L508.02,170.30L495.30,153.08L477.62,143.74L475.88,110.71L463.38,81.94L467.38,62.57L476.96,41.45L501.42,4.71L508.73,-2.61L503.91,-15.06L482.06,-27.10L474.84,-38.07L463.32,-81.73L440.19,-98.91L421.79,-111.04L427.11,-118.46L443.12,-105.28L457.72,-107.76L471.81,-102.37L478.81,-115.10L477.68,-134.51L490.58,-144.64L507.70,-136.18L510.56,-117.78ZM263.17,765.24L255.26,785.63L244.64,779.63L239.40,761.11L244.23,751.17L259.40,741.30L263.17,765.24ZM139.01,500.43L152.58,517.96L163.69,516.62L181.56,533.73L186.25,537.08L192.55,536.96L202.42,546.51L233.86,554.88L221.88,576.60L218.25,599.41L211.91,604.41L201.84,600.63L202.24,608.79L185.18,624.98L184.28,639.03L195.21,635.21L202.50,649.46L201.29,658.03L207.65,670.00L199.47,678.46L204.76,701.86L217.15,706.60L214.25,718.94L193.00,733.12L148.13,720.22L115.05,724.44L111.95,740.58L86.06,739.48L61.87,722.24L53.75,726.42L15.09,704.77L7.35,691.97L19.13,678.00L27.26,621.13L9.02,584.41L-4.11,565.23L-32.53,545.37L-31.55,522.30L-5.76,522.15L26.43,538.20L24.38,500.62L41.51,518.50L91.52,501.94L100.40,475.73L118.95,471.62L120.84,483.85L130.42,485.72L139.01,500.43ZM-17.93,327.56L-31.89,347.83L-43.20,337.63L-53.59,335.19L-46.15,318.70L-45.35,300.30L-31.33,302.62L-17.93,327.56ZM56.58,201.02L30.86,233.82L48.75,232.47L67.12,235.89L57.17,262.64L35.63,289.96L53.30,295.56L54.05,299.38L63.21,342.35L75.03,350.02L81.10,390.79L84.83,405.12L107.81,415.30L102.94,436.67L91.65,444.98L97.75,463.65L77.69,478.09L51.02,472.82L16.58,474.75L8.52,466.28L-6.25,478.37L-23.11,470.24L-38.01,478.82L-46.76,469.70L-14.41,443.39L3.37,440.45L3.23,440.39L-24.70,427.74L-27.55,413.47L-6.87,408.15L-13.60,388.00L-6.18,367.21L20.03,376.34L20.06,376.35L26.13,357.49L17.94,334.28L17.76,333.75L-2.27,323.11L-4.46,313.16L4.91,299.72L1.35,289.29L-11.19,302.85L-4.87,270.71L-9.03,251.93L5.36,219.20L24.45,195.11L36.46,200.23L56.58,201.02ZM909.01,617.45L910.30,606.09L905.56,592.31L896.80,588.81L888.78,591.08L882.79,586.83L884.22,582.80L896.51,579.35L916.67,569.62L935.11,568.05L937.68,570.70L944.64,561.11L956.00,556.76L960.33,563.05L967.75,561.91L965.14,567.61L971.39,574.48L970.08,578.44L964.05,582.69L955.15,583.95L952.54,590.06L935.98,607.55L923.03,605.99L909.01,617.45ZM589.02,888.07L600.53,891.74L617.19,886.13L632.81,882.99L632.13,886.52L643.61,880.74L640.70,887.23L610.33,897.68L610.71,894.45L584.67,897.47L589.02,888.07ZM650.66,737.24L644.76,754.99L639.89,759.20L627.07,761.98L615.93,762.48L590.04,775.35L605.29,785.76L594.38,792.40L582.25,795.23L570.46,785.01L566.41,791.35L571.52,804.96L582.57,813.76L574.33,820.78L586.52,828.71L597.24,832.73L597.44,845.26L577.36,844.18L583.67,853.95L569.71,859.43L577.62,876.30L563.02,879.86L545.03,874.51L536.90,858.73L533.08,844.45L524.31,835.37L512.66,823.78L511.09,817.13L521.52,803.46L522.77,795.10L530.04,790.18L530.38,783.42L544.99,778.51L553.35,771.27L565.34,769.38L568.85,764.13L573.01,762.40L589.16,759.61L606.20,748.44L621.49,753.69L640.53,746.14L640.29,733.24L650.66,737.24ZM157.79,-381.81L176.03,-384.71L180.50,-382.81L190.47,-385.10L198.50,-384.45L211.87,-380.53L213.73,-371.16L202.35,-368.08L191.27,-369.23L176.10,-370.74L173.77,-368.82L184.75,-368.21L186.71,-363.40L197.58,-365.68L194.01,-361.62L180.71,-355.85L195.09,-358.75L216.74,-361.03L224.31,-357.87L220.89,-352.80L195.73,-345.96L190.13,-343.41L175.18,-342.90L183.33,-341.10L167.12,-332.39L153.12,-324.16L134.74,-308.19L129.90,-297.25L121.25,-297.90L107.54,-294.41L107.88,-284.16L94.69,-269.55L87.02,-269.09L79.78,-252.27L65.24,-253.64L65.01,-244.70L56.80,-238.48L45.36,-237.47L37.00,-239.39L32.18,-224.60L24.20,-215.79L19.59,-227.02L11.49,-222.68L15.06,-215.57L12.39,-201.01L0.56,-183.40L-15.14,-182.67L-13.10,-192.25L-10.04,-206.25L-20.75,-191.80L-37.97,-183.21L-21.69,-176.93L-13.17,-173.00L-47.51,-159.63L-79.96,-148.82L-104.04,-148.88L-110.22,-151.73L-123.19,-146.40L-150.64,-127.99L-174.11,-119.89L-177.90,-121.29L-188.00,-120.58L-197.78,-120.64L-212.24,-110.94L-225.04,-96.49L-238.36,-84.75L-256.97,-74.74L-268.94,-56.73L-283.52,-41.37L-299.94,-23.24L-303.93,-28.87L-294.16,-52.56L-296.84,-61.85L-289.36,-76.83L-274.43,-98.25L-255.10,-128.04L-244.27,-141.60L-228.57,-157.92L-212.64,-178.27L-198.79,-189.54L-192.51,-197.32L-169.26,-213.62L-160.39,-215.72L-151.48,-221.51L-135.19,-233.52L-143.87,-230.62L-147.47,-229.59L-151.17,-229.54L-145.47,-237.53L-131.64,-247.91L-120.32,-254.94L-119.20,-253.17L-122.50,-244.70L-111.10,-257.95L-104.71,-264.77L-108.52,-264.75L-103.85,-269.93L-83.04,-280.73L-75.46,-286.86L-60.94,-297.27L-38.26,-312.36L-30.33,-318.78L-20.91,-323.59L-8.85,-333.53L-7.60,-336.93L-8.31,-339.80L-9.09,-342.05L-1.56,-346.50L13.19,-354.23L18.86,-354.23L19.55,-352.56L26.79,-359.34L37.13,-364.98L45.65,-367.97L54.95,-368.38L65.84,-369.08L74.40,-371.68L82.59,-376.56L91.96,-378.83L109.24,-381.43L112.38,-381.23L122.93,-384.64L130.43,-385.01L136.27,-384.31L139.15,-382.61L132.89,-379.64L148.79,-382.30L143.14,-378.08L143.32,-376.64L139.15,-372.69L147.79,-378.54L157.79,-381.81ZM476.44,648.00L482.38,659.11L489.86,666.78L481.66,679.08L471.21,673.71L455.57,675.83L435.85,672.70L425.20,674.25L420.39,680.86L412.00,674.56L407.46,687.32L419.03,700.35L424.22,709.02L435.05,718.90L443.98,724.42L452.93,735.34L473.49,743.58L471.08,748.56L449.24,740.72L435.65,731.90L414.32,725.18L394.47,705.14L399.10,702.68L388.35,690.83L387.76,680.76L372.85,676.67L365.91,689.90L358.97,680.07L359.39,669.54L360.21,669.02L376.29,669.48L380.42,664.16L388.33,668.76L397.36,668.86L397.10,660.34L404.99,656.73L406.91,644.13L424.75,634.59L432.06,637.85L449.41,649.58L468.24,653.52L476.44,648.00ZM416.23,624.27L423.05,603.31L418.48,596.68L431.06,595.66L432.24,582.36L443.88,589.66L452.21,592.40L470.55,586.57L471.98,579.92L480.62,577.98L490.94,571.71L493.41,573.47L503.32,568.13L507.85,559.85L514.73,556.90L538.28,563.22L542.53,559.20L554.96,565.90L557.13,574.13L544.71,583.00L536.10,605.92L524.30,628.95L507.03,637.33L493.15,637.84L476.44,648.00L468.24,653.52L449.41,649.58L432.06,637.85L424.75,634.59L420.04,624.34L416.23,624.27ZM-31.89,347.83L-33.87,371.97L-52.74,397.31L-86.75,406.81L-109.02,394.05L-88.50,365.61L-89.12,330.47L-61.25,312.01L-45.35,300.30L-46.15,318.70L-53.59,335.19L-43.20,337.63L-31.89,347.83ZM1037.58,573.64L1043.80,560.23L1048.79,541.99L1052.92,535.00L1055.61,526.75L1059.60,520.45L1065.13,516.92L1068.91,509.84L1073.06,511.80L1076.00,503.98L1075.12,516.50L1071.09,540.53L1068.22,554.67L1069.58,551.79L1066.34,564.79L1065.23,572.34L1063.42,580.22ZM997.21,733.34L990.90,741.60L989.71,737.92L988.93,729.26L983.39,737.89L978.77,740.95L973.61,750.70L970.24,750.05L972.15,742.67L968.93,746.43L973.14,733.99L970.32,728.54L958.80,734.14L953.49,726.59L957.86,710.79L964.17,699.15L964.36,689.71L957.42,691.61L951.26,676.47L945.23,666.73L947.70,658.47L943.86,638.22L951.95,625.10L953.98,631.33L959.92,635.47L967.66,630.82L971.65,626.34L983.98,598.73L987.77,593.20L990.84,595.96L987.46,609.58L993.60,613.01L996.03,609.31L998.72,619.85L1007.34,613.12L1013.01,614.44L1024.61,601.35L1036.67,578.87L1037.58,573.64ZM957.42,691.61L964.36,689.71L964.17,699.15L957.86,710.79L953.49,726.59L958.80,734.14L970.32,728.54L973.14,733.99L968.93,746.43L972.15,742.67L970.24,750.05L973.61,750.70L967.96,757.07L961.46,763.86L949.77,785.29L929.37,805.86L902.02,809.69L884.04,815.37L867.63,823.94L864.90,808.41L898.95,767.42L906.31,741.79L906.03,729.15L913.72,718.69L921.10,701.23L926.80,693.66L941.33,683.78L945.38,684.89L951.26,676.47L957.42,691.61ZM-6.59,-67.12L-18.34,-50.43L-16.19,-28.89L-40.86,-11.33L-80.86,-1.30L-92.21,0.83L-102.70,-7.67L-122.80,-25.72L-107.11,-33.86L-117.22,-53.57L-99.40,-52.78L-94.87,-60.38L-107.83,-72.68L-91.31,-86.62L-76.71,-85.91L-74.90,-64.42L-52.59,-74.06L-45.53,-63.37L-21.82,-73.03L-6.59,-67.12ZM815.19,850.19L811.53,856.98L805.89,858.21L800.67,870.80L804.55,870.16L799.92,874.72L798.46,879.16L806.64,872.60L805.90,878.25L792.60,905.84L786.93,887.43L792.78,879.68L791.79,879.45L797.50,869.66L802.79,855.55L805.78,849.99L806.27,849.56L811.83,846.41L813.75,842.58L818.20,839.79L817.49,846.46L814.89,850.27L815.19,850.19ZM403.83,862.56L395.30,880.96L398.78,887.56L393.78,898.99L375.81,891.87L363.82,890.03L330.81,879.52L334.13,867.82L361.84,869.27L385.95,865.69L403.83,862.56ZM254.77,790.09L268.81,809.16L265.42,841.89L254.69,839.84L245.06,847.30L236.15,840.36L235.32,810.43L230.06,795.36L242.96,797.52L254.77,790.09ZM329.19,630.28L361.95,637.79L359.65,653.18L365.31,666.09L346.92,662.12L328.19,673.20L329.50,688.16L326.67,696.67L334.35,711.60L356.32,725.77L368.27,748.79L394.55,769.69L412.88,768.31L418.64,773.83L412.14,779.65L433.15,787.48L450.31,793.68L470.30,804.74L472.73,809.14L468.49,818.58L455.55,808.43L435.30,806.33L425.57,823.44L442.49,830.95L439.75,843.78L429.99,846.12L417.45,867.15L407.66,869.66L407.77,862.66L412.58,849.77L417.67,844.30L408.48,830.99L401.26,818.99L391.48,816.46L384.48,805.86L369.31,801.87L359.06,791.74L341.58,790.46L323.12,778.62L301.58,760.80L285.66,744.46L278.56,716.02L267.00,712.23L248.24,701.67L237.51,705.01L223.90,717.58L214.25,718.94L217.15,706.60L204.76,701.86L199.47,678.46L207.65,670.00L201.29,658.03L202.50,649.46L212.07,656.84L223.09,656.22L236.14,646.63L239.98,651.76L250.90,651.38L256.08,639.10L272.94,643.69L283.09,638.74L285.04,625.89L298.83,630.66L301.52,624.69L324.07,619.29L329.19,630.28ZM811.53,856.98L815.19,850.19L832.12,845.67L864.90,808.41L867.63,823.94L864.40,828.28L832.50,856.53L844.68,861.18L839.09,867.01L835.43,873.40L823.12,883.05L818.10,890.37L810.15,898.80L792.66,907.48L792.60,905.84L805.90,878.25L806.64,872.60L809.90,866.65L811.53,856.98ZM1092.92,304.12L1093.11,312.75L1093.50,337.52L1094.02,354.08L1093.65,357.92L1092.76,352.52L1090.92,364.70L1089.25,352.18L1088.35,356.89L1086.27,337.85L1081.69,335.77L1077.31,353.93L1073.92,368.29L1067.46,359.70L1062.71,359.90L1052.65,359.75L1051.34,359.68L1039.46,397.17L1049.90,473.66L1046.77,480.06L1040.80,471.56L1035.56,472.79L1027.70,488.93L1024.95,500.51L1024.04,495.98L1025.06,484.62L1022.74,479.14L1012.47,483.54L1005.92,468.05L1000.23,467.74L998.75,460.58L1007.51,453.27L1004.95,436.10L1011.20,424.21L1018.60,419.24L1015.49,395.16L1010.97,382.39L1003.47,392.72L995.18,394.64L987.46,415.84L979.92,429.49L974.25,430.18L972.52,416.53L962.49,405.40L955.16,412.58L942.13,402.30L943.20,377.61L938.74,374.62L938.74,339.01L953.28,346.10L948.79,325.94L958.03,281.43L970.47,268.82L992.60,268.98L1003.74,269.37L1006.61,250.76L1015.14,237.73L1025.73,239.52L1024.61,230.41L1030.91,220.24L1027.88,207.65L1014.91,204.42L1014.49,186.00L1011.06,181.13L1012.39,168.17L1002.44,157.62L1000.68,146.55L1009.45,113.24L1008.02,104.60L1009.30,80.42L1006.08,66.06L1010.73,59.28L1022.11,78.18L1020.25,66.60L1024.11,65.09L1029.47,76.22L1028.86,68.87L1018.41,35.35L1021.79,43.43L1027.98,49.72L1045.29,80.42L1040.46,67.78L1041.67,68.59L1036.36,54.93L1036.13,54.37L1038.59,60.76L1037.75,59.38L1038.99,63.44ZM1088.53,245.90L1089.23,250.93L1089.63,256.63L1090.54,265.23L1091.95,276.57L1091.74,285.91L1092.03,294.47L1092.92,304.12ZM1092.92,304.12L1092.03,294.47L1091.74,285.91L1091.95,276.57L1090.54,265.23L1089.63,256.63L1089.23,250.93L1088.53,245.90ZM1096.26,345.46L1096.02,352.57L1095.53,364.75L1095.26,354.30L1095.87,346.19L1095.72,337.52L1095.82,331.66L1094.78,307.60L1094.45,310.25L1094.79,321.25L1094.08,322.04L1093.16,302.99L1092.92,304.12ZM523.87,752.71L523.01,758.35L520.14,758.60L518.37,749.12L512.91,747.20L507.89,740.61L511.92,733.81L517.24,730.98L520.03,721.26L523.99,719.07L527.30,722.49L531.53,723.52L534.60,727.43L538.31,728.10L542.80,732.42L545.95,731.70L543.68,738.78L541.13,742.48L541.93,744.37L536.98,746.29L523.87,752.71ZM967.96,757.07L968.22,760.52L966.38,764.58L966.23,770.45L959.10,779.18L958.68,776.05L949.77,785.29L961.46,763.86L967.96,757.07ZM818.20,839.79L813.75,842.58L811.83,846.41L806.27,849.56L813.96,832.27L823.51,815.03L823.88,814.22L831.10,810.80L832.99,816.19L823.40,828.07L818.20,839.79ZM381.44,1094.06L366.17,1097.73L354.43,1094.06L320.54,1091.23L311.02,1085.90L293.78,1081.45L283.67,1082.77L275.69,1077.32L274.67,1073.16L261.29,1065.08L269.84,1061.11L267.60,1054.01L270.19,1047.75L268.37,1042.12L272.00,1031.88L270.59,1025.59L262.86,1012.77L273.95,1009.92L275.81,1003.67L273.23,997.17L289.01,991.63L296.09,986.61L307.39,982.05L308.65,968.92L336.06,974.83L345.85,973.17L365.27,975.40L395.87,981.22L406.21,994.72L426.61,995.89L458.21,998.56L481.53,1002.45L492.68,996.91L503.86,988.20L499.57,977.16L507.09,968.04L523.64,957.26L539.02,951.90L568.32,948.79L575.05,954.42L583.03,952.48L589.55,953.49L610.32,949.59L614.83,953.34L606.41,962.96L608.82,968.45L602.24,978.97L606.73,988.29L597.92,1030.32L587.15,1062.52L580.80,1075.68L559.02,1082.16L557.53,1084.61L483.82,1091.07L403.41,1088.06L381.44,1094.06ZM534.52,359.60L531.84,351.05L532.60,341.33L523.51,337.03L502.86,333.54L495.32,304.86L515.18,291.66L546.06,289.60L563.08,283.45L566.82,290.12L576.66,290.69L596.69,304.01L601.18,318.81L588.40,332.47L587.38,352.39L569.16,368.82L550.81,371.63L544.79,361.81L534.52,359.60ZM190.64,514.52L194.54,522.47L192.55,536.96L186.25,537.08L181.56,533.73L184.97,515.27L190.64,514.52ZM495.32,304.86L492.70,278.68L498.76,255.95L513.85,242.18L531.98,265.94L546.12,263.21L544.88,236.54L558.35,228.32L566.60,231.27L583.71,241.29L597.56,238.80L607.29,244.95L612.29,260.89L622.00,279.50L606.24,296.25L596.69,304.01L576.66,290.69L566.82,290.12L563.08,283.45L546.06,289.60L515.18,291.66L495.32,304.86ZM-61.73,852.01L-49.35,864.72L-30.35,870.13L-8.93,881.37L0.08,884.39L8.66,898.93L10.67,910.47L19.41,931.12L25.25,936.32L22.05,941.64L-4.63,935.97L-13.09,938.81L-24.51,936.14L-23.77,947.20L-45.73,944.44L-51.81,948.70L-66.57,946.01L-84.63,939.93L-111.24,935.86L-107.01,950.80L-109.65,949.44L-109.65,949.44L-107.30,955.98L-117.76,950.78L-122.33,950.44L-129.91,946.23L-136.40,941.34L-149.64,934.53L-151.58,940.04L-156.18,937.78L-157.80,946.14L-173.34,942.38L-171.00,950.99L-174.39,950.42L-174.11,952.01L-203.81,928.92L-204.05,928.72L-206.07,925.54L-202.58,927.44L-201.11,926.55L-203.80,922.92L-202.91,920.23L-198.52,920.14L-194.62,922.12L-193.73,919.09L-195.93,913.82L-193.57,910.93L-185.39,913.77L-180.13,908.33L-179.91,908.35L-173.67,908.72L-159.38,916.54L-149.08,915.44L-141.68,916.69L-130.23,913.06L-138.23,892.70L-133.93,882.85L-132.86,875.58L-122.93,870.01L-105.59,870.73L-92.52,869.54L-81.38,855.76L-76.07,846.34L-61.73,852.01ZM636.06,546.56L640.23,540.79L652.85,534.37L668.29,540.18L676.30,539.10L685.93,544.82L685.86,555.51L693.37,558.34L697.61,569.99L705.09,575.41L704.27,580.23L708.12,582.06L703.38,585.86L692.06,588.56L689.73,585.06L685.97,588.65L687.90,593.51L683.57,604.46L681.15,615.47L676.51,620.10L671.72,607.85L672.53,594.67L670.52,581.78L657.26,566.96L649.58,555.69L642.43,548.09L636.06,546.56ZM520.14,758.60L523.01,758.35L523.87,752.71L536.98,746.29L541.93,744.37L549.44,741.41L559.66,739.00L570.94,745.37L573.01,762.40L568.85,764.13L565.34,769.38L553.35,771.27L544.99,778.51L530.38,783.42L520.92,778.74L517.49,768.07L520.14,758.60ZM-32.20,1038.13L-58.01,999.09L-30.21,1010.91L40.79,1053.45L112.67,1087.20L118.52,1091.11L131.44,1095.50L140.93,1098.34L142.61,1101.73L164.21,1105.46L169.00,1115.40L160.04,1115.72ZM381.10,915.75L380.31,916.46L378.05,916.55L376.07,915.61L376.07,913.43L378.35,913.74L380.42,915.10L381.10,915.75ZM375.18,912.45L373.77,912.84L372.38,912.28L372.05,911.92L374.01,911.51L374.96,911.75L375.36,912.27L375.18,912.45ZM501.87,743.93L500.29,738.98L490.79,753.81L492.51,762.16L487.69,760.74L481.09,752.75L471.08,748.56L473.49,743.58L476.45,727.85L483.66,720.37L487.82,717.23L493.99,721.28L497.41,724.72L504.93,726.67L513.70,731.15L511.92,733.81L507.89,740.61L501.87,743.93ZM-201.28,931.30L-147.16,971.69L-157.40,958.28L-156.33,956.28L-142.56,964.71L-154.79,939.43L-100.72,970.68L-106.40,953.74L-30.21,1010.91L-58.01,999.09L-32.20,1038.13ZM160.04,1115.72L169.00,1115.40L164.21,1105.46L191.51,1107.73L248.49,1102.60L320.54,1091.23L354.43,1094.06L366.17,1097.73L381.44,1094.06L385.45,1104.73L393.03,1105.80L393.08,1107.74L401.34,1109.05L396.44,1111.88L386.73,1122.29L384.52,1127.21L358.90,1131.59ZM198.54,398.72L215.41,400.97L218.56,413.02L211.61,444.39L205.57,456.95L192.97,455.93L194.36,491.97L183.17,482.99L170.87,466.80L151.00,471.72L136.05,467.20L147.49,459.20L169.66,410.72L198.54,398.72ZM484.73,-169.85L522.57,-155.87L513.12,-147.79L531.14,-133.63L518.14,-121.19L510.56,-117.78L507.70,-136.18L490.58,-144.64L477.68,-134.51L478.81,-115.10L471.81,-102.37L457.72,-107.76L443.12,-105.28L427.11,-118.46L421.79,-111.04L414.85,-109.53L416.49,-91.61L393.12,-94.88L392.00,-79.32L380.06,-78.96L373.73,-58.46L363.01,-25.53L343.14,17.93L348.88,28.57L344.11,41.20L329.13,40.80L319.31,71.02L320.29,114.85L331.01,131.83L325.68,171.87L310.97,195.48L302.81,215.42L291.19,193.96L253.90,233.10L228.94,240.08L205.38,220.79L202.86,183.34L206.58,105.32L223.67,85.10L267.17,59.64L298.55,27.39L325.35,-15.54L355.35,-72.54L374.32,-94.08L401.58,-128.87L423.28,-141.40L441.22,-141.23L450.73,-162.92L469.21,-163.40L484.73,-169.85ZM398.98,-300.94L388.01,-293.51L375.57,-296.90L378.43,-301.29L373.07,-306.28L383.99,-309.92L388.76,-304.12L398.98,-300.94ZM352.51,-327.59L373.46,-317.26L361.18,-310.76L360.80,-298.90L355.96,-295.63L355.52,-281.32L347.32,-280.46L331.75,-290.89L337.13,-296.93L327.40,-301.61L315.73,-314.91L312.01,-326.51L326.00,-331.55L329.10,-326.63L336.50,-326.90L337.77,-331.74L345.00,-332.34L352.51,-327.59ZM383.59,-338.59L395.52,-334.42L392.76,-326.55L378.74,-324.12L362.49,-325.93L360.31,-329.80L353.00,-329.85L346.05,-336.04L359.48,-340.14L367.48,-337.19L370.38,-341.32L383.59,-338.59ZM385.70,485.56L376.28,464.00L377.60,452.03L371.85,433.65L363.93,421.47L369.49,411.97L364.19,394.29L377.87,383.52L408.74,365.77L433.10,352.25L453.28,356.57L455.48,364.96L474.56,363.57L499.09,364.83L534.52,359.60L544.79,361.81L550.81,371.63L553.68,386.59L560.76,398.65L562.44,412.17L551.59,421.04L559.58,435.67L561.76,450.55L575.20,477.80L574.11,487.45L564.52,493.10L548.62,523.59L555.33,537.27L550.61,536.17L529.64,526.84L514.85,533.69L504.57,531.69L492.46,540.34L480.87,529.95L472.32,535.42L470.98,533.56L460.09,518.20L443.98,517.66L441.38,507.32L426.43,504.71L423.61,513.66L411.55,507.47L412.52,498.07L396.28,496.05L385.70,485.56ZM-133.57,684.86L-126.67,681.29L-119.04,680.70L-115.17,695.00L-104.24,699.40L-100.87,697.47L-89.93,702.59L-85.21,717.25L-94.28,720.62L-95.16,739.50L-98.32,741.77L-99.31,752.61L-107.45,751.20L-100.07,768.07L-105.25,780.60L-98.69,789.83L-101.19,794.63L-107.96,799.67L-106.21,807.28L-113.49,809.37L-123.29,802.11L-132.56,800.01L-130.29,785.03L-132.20,771.04L-140.25,765.28L-144.53,754.94L-143.04,740.94L-135.79,735.92L-134.30,727.08L-130.09,714.46L-130.07,704.01L-133.24,693.60L-133.57,684.86ZM977.24,769.17L980.10,764.68ZM557.13,574.13L565.62,565.71L578.83,566.76L592.09,564.20L602.35,569.82L608.85,563.50L623.45,557.08L627.68,548.59L636.06,546.56L642.43,548.09L649.58,555.69L657.26,566.96L670.52,581.78L672.53,594.67L671.72,607.85L676.51,620.10L685.74,622.75L694.41,615.28L703.60,617.37L704.75,624.55L695.97,633.69L689.83,632.92L687.04,668.28L675.17,669.02L659.84,663.23L636.22,676.34L626.37,686.12L595.27,692.06L578.54,691.23L570.26,695.02L563.42,684.54L559.17,680.28L563.94,674.44L558.39,671.84L551.90,679.62L538.69,673.41L536.33,661.55L522.57,656.70L519.60,647.52L507.03,637.33L524.30,628.95L536.10,605.92L544.71,583.00L557.13,574.13ZM534.52,359.60L499.09,364.83L474.56,363.57L477.52,347.80L502.86,333.54L523.51,337.03L532.60,341.33L531.84,351.05L534.52,359.60ZM549.79,-385.77L542.72,-387.77ZM707.30,-208.24L706.31,-205.32L687.06,-201.03L676.81,-209.20L661.55,-210.99L650.18,-221.18L651.51,-227.03L640.51,-237.09L633.12,-255.37L626.29,-256.11L619.11,-274.19L608.56,-281.08L606.36,-292.05L604.04,-305.38L609.86,-311.89L606.07,-318.73L607.78,-322.59L618.32,-318.45L623.86,-313.65L625.87,-302.52L627.00,-291.68L636.29,-272.73L650.72,-254.32L663.48,-234.78L681.42,-219.85L707.30,-208.24ZM614.45,-366.05L623.79,-362.47L617.44,-365.30L612.31,-368.11L616.73,-366.71L621.68,-364.71L631.52,-360.46L639.43,-356.90L655.57,-349.26L662.64,-345.78L662.15,-346.11L662.76,-345.78L657.15,-348.50L666.53,-343.66L660.99,-346.43L653.84,-349.71L646.81,-352.16L653.24,-348.65L641.22,-352.36L629.97,-358.33L625.15,-359.28L619.35,-360.99ZM1038.99,63.44L1037.75,59.38L1038.59,60.76L1036.13,54.37L1036.36,54.93L1041.67,68.59L1040.46,67.78L1045.29,80.42L1027.98,49.72L1021.79,43.43L1018.41,35.35L1028.86,68.87L1029.47,76.22L1024.11,65.09L1020.25,66.60L1022.11,78.18L1010.73,59.28L1006.08,66.06L1009.30,80.42L1008.02,104.60L1009.45,113.24L1000.68,146.55L1002.44,157.62L1012.39,168.17L1011.06,181.13L1014.49,186.00L1014.91,204.42L1027.88,207.65L1030.91,220.24L1024.61,230.41L1025.73,239.52L1015.14,237.73L1006.61,250.76L1003.74,269.37L992.60,268.98L970.47,268.82L958.03,281.43L948.79,325.94L953.28,346.10L938.74,339.01L938.74,374.62L943.20,377.61L942.13,402.30L955.16,412.58L962.49,405.40L972.52,416.53L974.25,430.18L979.92,429.49L978.38,448.11L969.48,461.15L963.24,495.48L975.96,509.11L976.84,525.57L990.44,540.74L985.18,555.66L983.82,562.93L979.15,566.05L970.87,559.79L967.75,561.91L960.33,563.05L956.00,556.76L944.64,561.11L937.68,570.70L935.11,568.05L916.67,569.62L896.51,579.35L884.22,582.80L882.79,586.83L861.76,576.65L843.25,576.46L827.75,567.85L838.58,557.69L847.92,528.35L837.76,521.92L857.75,499.00L856.30,493.18L843.90,504.71L842.19,492.06L848.33,480.25L861.79,470.68L862.15,460.14L855.84,446.30L858.23,428.36L856.17,420.06L833.30,421.33L824.89,425.76L812.67,416.16L802.16,426.05L780.17,423.74L779.23,417.61L770.72,406.54L757.66,409.88L754.24,400.73L756.85,392.96L742.61,378.89L726.36,387.66L720.98,387.70L718.28,396.29L711.71,396.99L703.28,377.73L697.04,368.20L699.63,364.23L713.30,361.28L718.07,352.27L711.40,345.17L699.02,342.81L698.67,336.67L690.60,332.68L675.32,314.14L676.79,304.36L671.51,289.40L653.61,285.58L645.78,291.62L641.55,283.93L622.00,279.50L612.29,260.89L607.29,244.95L597.56,238.80L602.28,226.84L590.28,196.69L596.96,175.57L593.16,170.27L605.87,148.94L585.86,136.44L605.28,89.94L612.19,69.46L611.79,52.82L584.96,35.59L583.49,15.05L564.20,-5.11L563.50,-31.33L537.59,-61.45L540.16,-83.60L516.11,-99.22L510.56,-117.78L518.14,-121.19L531.14,-133.64L537.19,-143.66L560.74,-131.15L590.13,-129.80L641.83,-109.23L656.22,-99.08L667.26,-82.37L664.80,-65.96L652.45,-54.78L594.86,-65.22L588.37,-60.28L615.77,-43.57L622.48,-30.80L636.31,-1.95L655.18,3.34L667.55,8.57L662.49,-5.60L649.97,-16.09L651.82,-28.34L686.38,-17.81L691.47,-26.95L673.81,-44.86L681.13,-76.75L690.39,-77.71L704.34,-71.37L698.01,-90.23L681.03,-102.82L675.09,-118.54L658.65,-131.65L686.18,-130.51L700.37,-118.78L692.66,-112.65L702.25,-99.21L714.45,-92.97L722.69,-102.48L713.20,-118.23L719.23,-134.60L724.70,-162.15L729.93,-162.98L736.00,-147.53L745.17,-148.55L742.49,-157.68L751.68,-163.14L750.52,-175.37L767.71,-166.31L759.19,-182.34L743.01,-190.94L738.43,-198.47L755.98,-199.87L767.13,-197.54L800.82,-186.26L791.86,-197.45L778.53,-204.17L774.08,-207.83L768.79,-206.58L759.83,-215.71L741.88,-227.94L734.98,-233.30L720.41,-251.92L702.14,-267.30L699.52,-271.59L710.70,-272.40L723.26,-264.55L739.07,-250.28L747.05,-246.59L762.44,-236.22L790.45,-213.21L804.57,-205.79L817.19,-193.26L841.46,-162.19L846.16,-163.15L839.94,-170.86L836.57,-178.76L827.39,-188.12L819.16,-198.69L807.24,-206.61L794.58,-218.70L791.44,-217.29L779.68,-225.79L759.92,-243.59L740.51,-253.44L728.77,-267.09L712.90,-276.93L713.13,-278.15L725.97,-271.20L746.23,-256.24L751.44,-255.73L735.48,-265.44L728.91,-274.28L729.56,-278.89L742.71,-274.61L724.54,-284.20L701.29,-297.98L697.87,-303.32L699.59,-306.60L696.82,-311.54L685.50,-316.37L671.12,-325.41L670.43,-327.28L659.14,-335.08L655.12,-339.77L649.00,-342.86L645.23,-346.88L649.32,-345.76L635.92,-353.19L634.23,-355.09L624.91,-359.05L614.89,-363.53L603.45,-369.04L607.78,-368.22L614.75,-364.98L614.45,-366.05ZM589.83,-374.21L603.92,-366.09L573.73,-377.57L570.59,-379.02L571.36,-379.18L580.92,-377.34L589.83,-374.21ZM482.96,-351.25L481.10,-348.97L479.50,-347.57L481.99,-345.56L480.86,-342.89L472.84,-345.12L469.41,-349.11L461.15,-348.30L464.81,-351.42L469.62,-352.35L475.10,-349.39L472.67,-352.43L472.64,-354.78L481.29,-353.18L482.96,-351.25ZM582.53,-373.91L586.77,-371.07L581.59,-370.86L573.29,-372.41L556.77,-377.20L552.14,-377.62L536.09,-384.26L530.51,-387.16L541.62,-385.25L562.40,-380.51L582.53,-373.91ZM-107.30,955.98L-109.65,949.44L-107.01,950.80L-106.77,951.61L-106.40,953.74L-100.72,970.68L-154.79,939.43L-142.56,964.71L-156.33,956.28L-157.40,958.28L-147.16,971.69L-201.28,931.30ZM-204.05,928.72L-203.81,928.92L-174.11,952.01L-174.39,950.42L-171.00,950.99L-173.34,942.38L-157.80,946.14L-156.18,937.78L-151.58,940.04L-149.64,934.53L-136.40,941.34L-129.91,946.23L-122.33,950.44L-117.76,950.78L-107.30,955.98ZM819.02,949.07L821.24,944.83L825.01,939.49L822.72,935.69L817.93,936.91L811.04,940.46L808.89,938.21L810.76,935.39L808.96,932.86L805.50,933.43L802.70,929.19L796.41,925.89L790.85,922.52L782.67,927.34L787.25,918.94L789.23,913.97L792.66,907.48L810.15,898.80L818.10,890.37L823.12,883.05L835.43,873.40L839.09,867.01L844.68,861.18L832.50,856.53L864.40,828.28L867.63,823.94L884.04,815.37L902.02,809.69L929.37,805.86L949.77,785.29L958.68,776.05L959.10,779.18L966.23,770.45L965.98,776.39L969.50,773.23L969.35,775.30L973.37,771.94L971.77,775.86L969.13,780.73L968.44,782.85ZM557.53,1084.61L559.02,1082.16L580.80,1075.68L587.15,1062.52L661.85,1035.41L728.56,1003.74L790.48,966.62L790.06,970.91L785.90,974.39L782.45,980.05ZM522.57,656.70L536.33,661.55L538.69,673.41L551.90,679.62L558.39,671.84L563.94,674.44L559.17,680.28L563.42,684.54L558.37,692.06L560.82,702.04L571.96,712.00L564.00,722.30L560.64,731.72L563.14,734.48L559.66,739.00L549.44,741.41L541.93,744.37L541.13,742.48L543.68,738.78L545.95,731.70L542.80,732.42L538.31,728.10L534.60,727.43L531.53,723.52L527.30,722.49L523.99,719.07L520.03,721.26L517.24,730.98L511.92,733.81L513.70,731.15L504.93,726.67L497.41,724.72L493.99,721.28L487.82,717.23L493.11,715.26L495.94,701.36L484.66,691.62L489.81,677.96L481.66,679.08L489.86,666.78L482.38,659.11L476.44,648.00L493.15,637.84L507.03,637.33L519.60,647.52L522.57,656.70ZM470.98,533.56L472.32,535.42L480.87,529.95L492.46,540.34L504.57,531.69L514.85,533.69L529.64,526.84L550.61,536.17L545.56,545.56L542.53,559.20L538.28,563.22L514.73,556.90L507.85,559.85L503.32,568.13L493.41,573.47L490.94,571.71L480.62,577.98L471.98,579.92L470.55,586.57L452.21,592.40L443.88,589.66L432.24,582.36L429.58,571.28L431.19,566.99L434.01,559.53L443.77,559.27L451.08,555.19L451.52,552.08L455.62,550.13L456.64,542.49L461.54,540.56L464.55,534.27L470.98,533.56ZM361.95,637.79L380.87,639.50L392.23,631.84L412.06,629.87L416.23,624.27L420.04,624.34L424.75,634.59L406.91,644.13L404.99,656.73L397.10,660.34L397.36,668.86L388.33,668.76L380.42,664.16L376.29,669.48L360.21,669.02L365.31,666.09L359.65,653.18L361.95,637.79ZM461.24,-16.64L452.18,5.52L457.91,24.21L438.87,51.28L412.89,80.86L405.77,128.07L419.89,151.14L438.10,168.88L426.03,208.66L408.10,217.87L405.12,276.84L396.17,310.32L372.46,307.88L362.25,336.18L339.28,338.26L332.66,304.95L316.47,265.00L302.81,215.42L310.97,195.48L325.68,171.87L331.01,131.83L320.29,114.85L319.31,71.02L329.13,40.80L344.11,41.20L348.88,28.57L343.14,17.93L363.01,-25.53L373.73,-58.46L380.06,-78.96L392.00,-79.32L393.12,-94.88L416.49,-91.61L414.85,-109.53L421.79,-111.04L440.19,-98.91L463.32,-81.73L474.84,-38.07L482.06,-27.10L461.24,-16.64ZM415.83,264.11L418.75,266.01L406.67,307.13L404.60,293.94L415.83,264.11ZM456.23,241.08L447.24,252.59L448.36,259.73L451.51,259.58L450.95,262.12L446.40,264.78L447.05,268.28L442.71,271.34L440.67,278.54L436.76,280.10L437.64,272.36L435.00,267.01L436.14,262.44L434.55,257.27L443.67,243.12L450.52,242.17L451.52,240.25L456.38,239.74L456.23,241.08ZM453.61,43.30L456.81,42.85L456.06,46.56L454.61,51.07L452.62,50.83L453.80,46.78L453.16,44.73L453.61,43.30ZM864.90,808.41L832.12,845.67L815.19,850.19L814.89,850.27L817.49,846.46L818.20,839.79L823.40,828.07L832.99,816.19L831.10,810.80L823.88,814.22L823.59,801.03L828.18,790.91L832.81,784.16L837.40,777.36L838.84,765.86L843.88,766.58L861.33,750.37L869.24,748.81L881.44,740.49L898.25,721.40L905.71,716.16L921.10,701.23L913.72,718.69L906.03,729.15L906.31,741.79L898.95,767.42L864.90,808.41ZM358.90,1131.59L384.52,1127.21L386.73,1122.29L396.44,1111.88L401.34,1109.05L393.08,1107.74L393.03,1105.80L385.45,1104.73L381.44,1094.06L403.41,1088.06L483.82,1091.07L557.53,1084.61ZM1095.72,337.52L1095.87,346.19L1095.26,354.30L1095.53,364.75L1096.02,352.57L1096.26,345.46ZM1096.25,367.83L1096.04,377.69ZM1095.37,394.83L1094.81,405.30L1094.69,405.86L1093.70,418.52L1093.45,419.88L1094.68,397.95L1094.54,388.17L1093.60,391.85L1093.80,381.85L1094.76,374.08L1094.88,360.08L1094.54,346.14L1094.93,329.08L1095.37,338.85L1095.65,342.02L1095.72,337.52ZM1075.12,516.50L1076.00,503.98L1073.06,511.80L1068.91,509.84L1065.13,516.92L1059.60,520.45L1055.61,526.75L1052.92,535.00L1048.79,541.99L1043.80,560.23L1037.58,573.64L1036.73,562.99L1037.98,541.95L1032.19,544.10L1033.76,527.99L1028.70,534.05L1029.54,514.80L1036.79,509.63L1042.50,493.86L1036.57,489.48L1033.44,480.69L1027.98,494.40L1028.43,510.60L1024.95,500.51L1027.70,488.93L1035.56,472.79L1040.80,471.56L1046.77,480.06L1049.90,473.66L1056.51,461.47L1054.72,453.23L1058.74,437.47L1061.72,417.21L1069.18,413.85L1071.12,428.11L1073.04,427.99L1077.19,415.85L1078.65,415.73L1081.42,429.32L1085.32,429.35L1087.19,430.48L1089.66,427.54L1092.10,420.36L1091.70,430.48L1091.19,433.23L1090.47,434.01L1089.91,441.43L1087.88,453.71L1086.52,468.61L1084.66,479.64L1082.19,490.83L1080.81,500.24L1078.13,510.85L1075.12,516.50ZM262.86,1012.77L252.33,984.43L237.91,976.74L237.60,972.62L218.41,960.67L216.02,946.83L230.12,937.56L235.37,921.81L231.44,901.92L236.11,891.29L261.70,884.00L278.24,887.35L277.59,898.32L297.62,890.90L299.31,895.11L287.52,905.32L287.39,914.96L295.58,920.25L292.55,937.35L277.17,946.48L281.72,956.73L293.82,957.39L299.76,966.04L308.65,968.92L307.39,982.05L296.09,986.61L289.01,991.63L273.23,997.17L275.81,1003.67L273.95,1009.92L262.86,1012.77ZM840.87,665.28L863.71,661.40L880.90,646.95L893.39,640.82L909.01,617.45L923.03,605.99L935.98,607.55L938.52,613.65L937.80,625.27L947.08,622.99L951.95,625.10L943.86,638.22L947.70,658.47L945.23,666.73L951.26,676.47L945.38,684.89L941.33,683.78L926.80,693.66L921.10,701.23L905.71,716.16L898.25,721.40L881.44,740.49L869.24,748.81L861.33,750.37L843.88,766.58L838.84,765.86L837.40,777.36L832.81,784.16L828.18,790.91L822.68,785.62L829.30,774.66L819.15,782.05L805.25,785.11L792.83,802.75L765.72,818.18L751.39,814.19L731.17,822.16L726.42,832.38L712.99,840.09L694.45,836.44L672.53,844.49L660.95,827.33L645.98,819.73L656.12,798.97L642.88,791.70L665.43,761.77L696.42,750.66L704.09,729.01L740.82,718.63L762.30,693.42L782.77,677.22L811.23,663.19L840.87,665.28ZM663.47,755.66L646.55,774.02L639.73,764.43L639.89,759.20L644.76,754.99L650.66,737.24L640.29,733.24L660.94,719.01L678.55,717.17L681.37,726.31L699.07,728.72L695.70,736.09L671.94,745.26L663.47,755.66ZM711.71,396.99L718.28,396.29L720.98,387.70L726.36,387.66L742.61,378.89L756.85,392.96L754.24,400.73L757.66,409.88L770.72,406.54L779.23,417.61L780.17,423.74L802.16,426.05L812.67,416.16L824.89,425.76L833.30,421.33L856.17,420.06L858.23,428.36L855.84,446.30L862.15,460.14L861.79,470.68L848.33,480.25L842.19,492.06L843.90,504.71L832.22,513.13L823.37,527.28L808.71,535.84L796.14,552.73L799.44,569.62L808.37,572.52L824.64,562.91L822.77,574.11L805.49,587.39L784.21,613.44L773.96,612.11L776.42,597.63L756.25,597.38L758.78,590.77L774.43,574.61L768.59,570.22L740.12,573.66L737.52,563.30L721.06,572.87L716.03,591.24L703.60,617.37L694.41,615.28L685.74,622.75L676.51,620.10L681.15,615.47L683.57,604.46L687.90,593.51L685.97,588.65L689.73,585.06L692.06,588.56L703.38,585.86L708.12,582.06L704.27,580.23L705.09,575.41L697.61,569.99L693.37,558.34L685.86,555.51L685.93,544.82L676.30,539.10L668.29,540.18L652.85,534.37L640.23,540.79L636.06,546.56L627.68,548.59L623.45,557.08L608.85,563.50L602.35,569.82L592.09,564.20L578.83,566.76L565.62,565.71L557.13,574.13L554.96,565.90L542.53,559.20L545.56,545.56L550.61,536.17L555.33,537.27L548.62,523.59L564.52,493.10L574.11,487.45L575.20,477.80L561.76,450.55L571.07,447.58L580.66,436.54L595.56,432.90L615.25,431.48L637.47,434.61L652.17,431.69L659.85,434.63L665.73,427.18L671.78,433.47L687.69,427.41L695.28,428.45L693.40,411.99L697.40,403.36L711.71,396.99ZM1091.70,430.48L1092.10,420.36L1089.66,427.54L1087.19,430.48L1085.32,429.35L1081.42,429.32L1078.65,415.73L1077.19,415.85L1073.04,427.99L1071.12,428.11L1069.18,413.85L1061.72,417.21L1058.74,437.47L1054.72,453.23L1056.51,461.47L1049.90,473.66L1039.46,397.17L1051.34,359.68L1052.65,359.75L1062.71,359.90L1067.46,359.70L1073.92,368.29L1077.31,353.93L1081.69,335.77L1086.27,337.85L1088.35,356.89L1089.25,352.18L1090.92,364.70L1092.76,352.52L1093.65,357.92L1094.02,354.08L1093.50,337.52L1093.11,312.75L1092.92,304.12L1093.16,302.99L1094.08,322.04L1094.79,321.25L1094.45,310.25L1094.78,307.60L1095.82,331.66L1095.72,337.52L1095.65,342.02L1095.37,338.85L1094.93,329.08L1094.54,346.14L1094.88,360.08L1094.76,374.08L1093.80,381.85L1093.60,391.85L1094.54,388.17L1094.68,397.95L1093.45,419.88L1092.58,424.61L1091.70,430.48ZM811.53,856.98L809.90,866.65L806.64,872.60L798.46,879.16L799.92,874.72L804.55,870.16L800.67,870.80L805.89,858.21L811.53,856.98Z" fill="#294d73" stroke="#192e45" stroke-width="1.5" stroke-linejoin="round"/>
</svg>