<?xml version="1.0" encoding="UTF-8"?>
<svg xmlns="http://www.w3.org/2000/svg" width="320" height="493" viewBox="0 0 640 986">
  <rect width="640" height="986" fill="#0a1923"/>
  <circle cx="320" cy="355.31" r="938.77" fill="#192e45"/>
  <path d="M588.56,921.60L584.65,933.45L588.72,946.43L600.97,951.73L600.20,960.00L590.41,966.33L588.37,976.52L574.03,993.48L568.99,992.34L568.57,985.94L552.08,978.68L549.72,964.42L552.59,942.31L556.83,931.51L551.75,927.11L549.75,916.76L562.94,897.86L564.87,904.02L573.01,899.63L579.43,907.69L586.61,909.87L588.56,921.60ZM1111.23,700.24L1130.33,676.71L1132.70,680.86L1137.33,680.08L1134.37,689.49L1140.45,690.78L1136.27,702.89L1140.92,703.61L1145.94,701.17L1144.26,717.61L1139.81,723.60L1136.43,715.54L1136.89,711.67L1131.29,718.09L1128.11,715.63L1125.32,719.28L1120.70,717.47L1110.95,721.54L1113.13,707.34L1111.23,700.24ZM474.55,695.65L472.73,713.44L455.47,714.96L461.65,723.74L452.01,751.64L446.24,759.09L419.07,761.93L403.44,772.14L377.54,770.02L332.61,760.23L325.59,745.68L294.62,752.81L290.94,760.70L271.99,754.34L256.04,752.68L242.00,744.46L246.89,734.31L245.78,726.70L255.20,724.72L270.85,737.07L275.38,725.94L302.89,728.25L325.20,720.63L340.15,721.85L349.92,730.48L352.79,723.15L348.22,694.97L359.31,689.19L370.01,668.51L393.09,681.99L410.06,663.07L420.76,659.16L444.80,671.23L459.05,667.88L473.31,675.04L471.05,680.82L474.55,695.65ZM1128.11,715.63L1131.29,718.09L1136.89,711.67L1136.43,715.54L1139.81,723.60L1131.68,730.40L1126.47,726.43L1125.32,719.28L1128.11,715.63ZM1159.54,643.85L1164.38,639.41L1166.53,630.33L1173.21,611.33L1178.12,617.77L1182.13,628.59L1186.48,623.11L1188.83,625.35L1180.92,639.14L1177.42,660.46L1174.76,671.26L1170.38,682.11L1169.06,693.14L1166.33,697.95L1161.43,695.02L1166.53,678.25L1164.14,675.46L1159.86,682.69L1144.26,717.61L1145.94,701.17L1140.92,703.61L1136.27,702.89L1140.45,690.78L1134.37,689.49L1137.33,680.08L1132.70,680.86L1130.33,676.71L1133.69,668.89L1142.77,666.20L1149.24,660.20L1151.00,655.19L1145.60,647.56L1148.83,640.22L1152.16,637.23L1159.54,643.85ZM65.29,538.53L85.87,544.92L113.15,538.40L130.30,560.73L145.85,573.13L141.00,603.85L133.19,604.79L128.78,629.80L103.98,606.34L88.76,607.99L69.88,583.94L57.87,563.77L44.74,561.05L41.95,544.33L65.29,538.53ZM649.08,826.28L657.68,839.38L668.80,834.17L690.79,834.43L731.79,825.26L745.16,812.26L776.50,794.19L795.89,800.65L811.13,798.96L798.01,817.97L788.65,845.35L796.98,860.99L774.41,864.53L746.96,883.60L746.41,899.54L721.42,910.10L701.97,904.60L679.16,919.39L657.95,923.74L656.14,902.77L641.64,895.40L646.44,889.57L643.28,886.24L648.16,874.23L659.14,860.86L644.88,848.73L642.06,836.11L649.08,826.28ZM539.83,822.05L550.86,820.38L543.53,838.14L558.39,850.29L554.16,868.12L547.00,870.79L541.32,874.90L531.42,884.60L526.98,904.52L499.64,894.72L487.86,881.11L475.95,874.29L461.51,861.88L454.63,850.86L439.14,834.25L445.51,817.64L456.82,825.69L463.47,817.03L477.97,814.82L504.65,818.48L525.86,815.37L539.83,822.05ZM640.08,406.39L665.13,402.34L690.02,379.49L691.58,351.96L708.97,333.01L702.98,312.55L715.92,301.80L737.19,278.64L763.37,284.75L768.99,295.34L779.43,287.01L803.16,292.26L810.06,312.80L808.06,326.23L828.02,351.55L838.54,356.95L838.93,365.34L855.04,368.44L863.61,378.05L857.28,390.39L839.43,394.59L835.99,400.05L843.97,412.96L854.56,439.01L835.79,447.94L830.38,459.76L832.44,482.06L822.54,480.82L801.51,489.41L793.69,480.99L785.75,491.24L775.65,487.42L756.04,491.69L726.42,487.85L699.93,490.14L679.74,495.38L666.55,510.64L653.88,514.86L651.18,494.51L640.54,474.52L655.43,462.19L653.34,443.59L643.85,427.04L640.08,406.39ZM-148.54,-461.60L-154.99,-457.67L-151.38,-459.16L-147.80,-460.53L-147.40,-459.78L-145.20,-460.90L-130.40,-469.01L-122.71,-473.68L-122.66,-474.13L-131.50,-470.69L-148.54,-461.60ZM-116.96,-475.68L-144.42,-460.54ZM-157.97,-453.68L-152.24,-458.21L-169.74,-448.70L-184.11,-440.14L-194.03,-433.45L-194.12,-434.52L-211.03,-423.26L-225.89,-413.43L-236.99,-405.42L-259.90,-387.89L-264.90,-383.19L-285.07,-367.17L-293.78,-359.88L-316.49,-339.46L-321.54,-334.39L-335.25,-321.45L-352.98,-303.43L-341.18,-315.09L-317.95,-337.18L-316.08,-337.98L-326.24,-327.80L-340.50,-314.28L-353.48,-301.79L-359.62,-295.47L-379.02,-274.09L-389.62,-261.00L-380.36,-270.50ZM-271.03,-374.13L-263.12,-380.56ZM-66.89,-501.08L-70.42,-500.81L-76.15,-498.96L-87.60,-493.73L-97.79,-488.49L-102.26,-485.65L-102.95,-484.11L-96.53,-486.57ZM31.98,-542.33L21.66,-539.07L17.05,-536.80L3.27,-530.40L6.00,-530.39L14.27,-532.35L26.17,-536.44L34.26,-539.65L38.39,-541.72L42.67,-542.19L52.86,-545.29L64.58,-549.11L73.14,-552.42L78.77,-554.58L78.33,-554.88L84.67,-556.67L81.50,-556.57L66.03,-552.24L57.61,-550.14L49.91,-548.18L31.98,-542.33ZM111.72,-565.46L109.69,-564.50L106.43,-563.24L98.99,-560.91L90.91,-558.85L76.98,-555.85L70.58,-554.70L63.94,-553.04L64.18,-552.58L46.24,-547.86L38.34,-545.74L15.65,-538.58L12.41,-537.66L7.28,-535.89L7.51,-535.92L2.54,-534.20L-1.51,-532.68L-15.79,-527.32L-23.68,-524.13L-28.77,-521.81L-38.02,-517.81L-42.99,-515.24L-48.89,-512.66L-51.16,-512.18L-57.34,-509.40L-66.50,-504.03L-53.80,-508.68L-49.77,-508.59L-42.94,-510.71ZM-25.44,-518.82L-7.61,-526.33L-7.45,-526.77L-23.90,-521.26L-5.51,-528.31L2.73,-530.80L10.17,-534.18L12.38,-535.79L20.53,-538.91L32.93,-542.84L46.64,-547.38L41.04,-546.27L37.00,-545.11L44.38,-547.81L50.57,-549.37L54.49,-549.74L66.10,-552.87L77.69,-556.14L87.02,-558.52L95.96,-560.97L98.53,-562.03L97.70,-562.05L99.36,-562.82L107.67,-565.08L104.94,-564.53L96.16,-562.44L110.40,-565.96L113.83,-566.80L115.73,-567.25L115.28,-567.07L111.90,-566.28L115.92,-566.97L113.69,-566.22L111.72,-565.46ZM245.78,726.70L246.89,734.31L242.00,744.46L256.04,752.68L271.99,754.34L269.38,771.30L255.50,777.77L232.39,771.58L225.42,787.67L210.51,788.05L205.19,781.27L187.52,793.66L172.51,794.30L159.36,784.47L149.16,765.63L134.36,770.44L135.29,751.96L158.30,730.81L157.62,719.96L171.47,725.13L180.08,718.57L206.27,720.78L212.80,711.86L245.78,726.70ZM894.90,990.75L896.48,989.76L900.71,982.88L916.29,974.19L936.81,956.21L920.72,973.93L921.42,976.92L919.30,977.56L914.88,981.55L911.76,983.00L910.52,984.43L910.54,982.57L909.26,982.19L905.12,984.38L898.81,989.53L894.90,990.75ZM921.42,976.92L921.71,978.19L897.80,999.38L887.61,1002.77L884.16,997.31L894.90,990.75L898.81,989.53L905.12,984.38L909.26,982.19L910.54,982.57L910.52,984.43L911.76,983.00L914.88,981.55L919.30,977.56L921.42,976.92ZM473.31,675.04L459.05,667.88L444.80,671.23L420.76,659.16L410.06,663.07L393.09,681.99L370.01,668.51L352.46,649.64L336.75,638.98L333.44,619.78L328.07,606.14L350.07,595.84L361.18,584.04L382.67,574.40L390.02,565.23L398.03,570.30L411.26,564.82L425.85,579.12L448.32,581.77L446.90,594.62L463.50,602.94L467.49,590.72L488.09,594.13L491.55,608.18L513.72,608.71L528.44,629.38L519.61,630.44L515.38,639.00L508.62,641.67L507.10,652.00L501.45,654.70L500.80,658.90L490.70,664.49L477.29,664.97L473.31,675.04ZM262.42,378.83L262.45,397.83L290.87,409.87L290.36,427.25L319.48,418.27L335.44,404.77L367.83,423.64L381.68,438.84L389.03,463.37L381.25,476.56L392.25,493.39L400.17,518.74L398.29,535.24L411.26,564.82L398.03,570.30L390.02,565.23L382.67,574.40L361.18,584.04L350.07,595.84L328.07,606.14L333.44,619.78L336.75,638.98L352.46,649.64L370.01,668.51L359.31,689.19L348.22,694.97L352.79,723.15L349.92,730.48L340.15,721.85L325.20,720.63L302.89,728.25L275.38,725.94L270.85,737.07L255.20,724.72L245.78,726.70L212.80,711.86L206.27,720.78L180.08,718.57L184.77,688.11L201.02,659.00L157.62,647.37L143.93,634.31L146.46,614.69L141.00,603.85L145.85,573.13L143.54,523.69L160.98,525.20L169.25,507.94L178.67,464.62L174.22,447.91L180.32,438.05L204.19,436.90L209.01,447.91L229.32,424.87L223.55,406.26L223.41,378.40L244.28,385.74L262.42,378.83ZM339.81,348.61L323.25,388.62L294.08,360.64L290.48,340.11L330.85,323.91L339.81,348.61ZM291.18,306.60L284.23,325.13L276.20,319.62L255.51,354.64L262.42,378.83L244.28,385.74L223.41,378.40L213.43,350.60L215.17,300.28L220.32,287.21L228.68,272.79L252.16,270.57L261.91,257.26L283.42,243.83L282.00,269.12L273.75,285.02L276.65,298.89L291.18,306.60ZM320.66,1282.47L232.36,1287.75ZM-22.15,1227.39L-111.71,1180.59L-208.60,1114.80L-209.50,1112.85L-209.96,1112.08L-217.90,1097.64L-187.45,1107.18L-165.78,1116.48L-148.28,1121.75L-141.88,1118.66L-115.56,1124.86L-117.99,1113.69L-103.94,1118.01L-94.10,1116.25L-60.93,1125.40L-57.59,1120.27L-65.34,1114.18L-78.32,1091.34L-82.01,1078.66L-94.12,1061.82L-70.10,1058.48L-41.01,1063.62L-24.46,1059.10L2.12,1059.00L50.86,1065.80L99.79,1072.89L115.14,1078.92L143.16,1073.26L175.82,1076.92L188.52,1083.95L209.55,1084.32L203.68,1096.27L209.35,1118.64L202.96,1135.77L184.98,1145.32L188.57,1160.14L213.67,1173.30L214.19,1177.57L232.93,1185.88L247.11,1214.35L257.23,1226.77L259.16,1232.67L254.80,1241.91L257.24,1246.96L254.15,1252.33L257.15,1258.42L246.57,1261.44L263.49,1268.34L264.87,1271.61L274.91,1275.93L287.43,1275.15L308.87,1278.65L320.66,1282.47ZM909.13,1059.72L900.88,1068.79L891.46,1081.21L882.46,1090.96L876.59,1095.95L872.10,1096.38L865.86,1096.62L860.00,1086.57L857.24,1089.09L859.37,1098.00L865.38,1102.55L869.51,1109.80L872.68,1110.40L874.58,1111.51ZM664.95,1210.87L681.61,1172.79L677.37,1164.55L686.64,1153.48L684.36,1148.36L695.76,1137.69L730.11,1125.29L753.07,1120.13L775.96,1114.56L786.28,1112.03L806.12,1098.78L817.22,1089.65L837.92,1078.22L853.19,1071.85L856.40,1076.34L863.35,1068.45L879.25,1062.27L895.28,1053.31L906.93,1043.07L909.13,1059.72ZM-277.86,813.09L-276.89,791.29L-285.92,772.77L-253.37,764.20L-224.56,782.95L-191.56,795.98L-164.62,811.84L-142.97,817.51L-99.63,832.32L-88.84,848.95L-37.21,878.31L-26.77,873.48L5.92,896.27L40.20,898.80L41.88,918.60L14.04,934.55L-23.13,932.65L-25.44,942.46L-42.47,954.69L-52.32,975.33L-40.46,994.27L-55.90,1001.74L-60.60,1016.90L-80.87,1015.54L-98.01,1028.02L-131.36,1016.37L-155.84,1006.37L-170.44,1008.08L-178.59,1012.58L-190.82,1005.39L-200.94,993.60L-209.67,976.97L-232.21,962.63L-235.20,953.64L-227.65,948.61L-225.16,943.29L-234.08,931.74L-229.15,917.49L-239.83,896.58L-229.77,899.10L-229.60,886.13L-225.93,883.68L-226.55,860.73L-215.61,857.39L-222.69,838.88L-236.67,831.60L-240.67,833.70L-254.50,827.30L-260.47,809.21L-269.76,809.27L-277.86,813.09ZM632.52,218.91L630.14,190.69L622.65,197.85L604.77,183.07L597.95,156.27L624.28,139.50L650.81,128.78L676.14,132.66L697.82,127.54L703.01,134.90L694.16,163.99L710.57,205.76L704.23,222.29L685.47,225.66L662.18,211.69L650.92,207.56L632.52,218.91ZM579.22,-261.73L587.33,-237.60L620.19,-216.42L617.53,-187.54L653.36,-146.87L655.15,-111.95L681.66,-84.32L684.23,-56.64L720.63,-32.59L721.61,-10.05L712.84,17.60L687.53,80.86L650.63,90.38L616.27,112.43L581.60,126.67L563.95,102.69L539.46,89.58L536.78,43.88L519.22,4.11L524.52,-22.42L537.42,-51.13L570.28,-100.46L580.09,-110.13L573.25,-126.96L543.17,-143.59L533.09,-158.39L516.41,-216.38L484.54,-239.36L459.23,-255.52L466.33,-265.01L488.38,-247.59L508.17,-250.46L527.42,-243.10L536.54,-259.36L534.41,-284.30L551.43,-296.74L574.70,-285.35L579.22,-261.73ZM243.37,933.70L233.00,958.89L218.65,951.32L211.30,928.21L217.65,915.83L238.00,903.60L243.37,933.70ZM69.88,583.94L88.76,607.99L103.98,606.34L128.78,629.80L135.27,634.39L143.93,634.31L157.62,647.37L201.02,659.00L184.77,688.11L180.08,718.57L171.47,725.13L157.62,719.96L158.30,730.81L135.29,751.96L134.36,770.44L149.16,765.63L159.36,784.47L157.87,795.66L166.73,811.38L155.80,822.20L163.44,852.49L180.30,858.81L176.61,874.53L148.28,892.06L87.68,874.46L43.67,878.61L40.20,898.80L5.92,896.27L-26.77,873.48L-37.21,878.31L-88.84,848.95L-99.63,832.32L-85.05,815.21L-77.10,742.11L-102.71,693.15L-120.79,667.26L-158.83,639.80L-158.45,609.13L-124.57,609.81L-81.36,632.34L-85.24,581.77L-61.82,606.33L5.19,585.14L16.72,549.63L41.95,544.33L44.74,561.05L57.87,563.77L69.88,583.94ZM-144.94,344.77L-163.21,372.48L-178.24,358.40L-191.90,354.97L-182.30,332.44L-181.36,307.20L-162.87,310.43L-144.94,344.77ZM-44.90,169.92L-79.84,215.45L-55.68,213.48L-30.74,218.14L-44.30,255.25L-73.41,293.09L-49.49,300.87L-48.46,306.16L-35.75,365.69L-19.61,376.38L-10.90,432.77L-5.63,452.57L25.87,466.86L19.52,496.20L4.25,507.44L12.89,533.09L-14.08,552.44L-50.23,544.73L-96.35,546.57L-107.32,534.89L-126.59,550.89L-149.11,539.44L-168.42,550.59L-180.15,538.05L-138.33,503.27L-114.80,499.67L-114.99,499.58L-152.32,481.78L-156.39,462.28L-129.10,455.41L-138.41,427.74L-128.86,399.35L-93.70,412.19L-93.66,412.20L-85.74,386.31L-96.98,354.26L-97.23,353.53L-124.12,338.74L-127.12,325.03L-114.67,306.54L-119.48,292.14L-136.15,310.81L-127.82,266.52L-133.35,240.65L-114.02,195.46L-88.24,162.06L-72.10,169.00L-44.90,169.92ZM1081.38,715.69L1084.01,701.53L1080.23,684.95L1070.87,681.46L1061.68,685.11L1055.31,680.35L1057.28,675.13L1071.42,669.64L1094.58,655.45L1114.57,651.57L1117.03,654.58L1125.30,641.90L1137.49,635.24L1141.26,642.52L1148.83,640.22L1145.60,647.56L1151.00,655.19L1149.24,660.20L1142.77,666.20L1133.69,668.89L1130.33,676.71L1111.23,700.24L1097.74,699.92L1081.38,715.69ZM670.08,1070.75L684.27,1073.81L705.66,1066.03L725.43,1061.01L724.24,1064.98L739.06,1057.40L734.79,1064.87L696.01,1079.44L696.78,1075.85L663.80,1081.56L670.08,1070.75ZM760.00,887.85L751.22,910.10L744.68,915.60L728.05,919.90L713.68,921.26L679.38,938.64L698.42,950.29L683.92,959.04L668.06,963.23L653.35,951.56L647.72,959.50L653.55,975.60L667.30,985.41L656.20,994.30L671.37,1002.84L684.83,1006.78L684.15,1021.36L658.54,1021.60L665.93,1032.46L647.68,1039.79L656.56,1058.46L637.68,1063.59L614.99,1058.77L605.48,1041.15L601.35,1024.74L590.43,1014.54L575.79,1001.36L574.03,993.48L588.37,976.52L590.41,966.33L600.20,960.00L600.97,951.73L620.40,945.01L631.73,935.71L647.54,932.75L652.41,926.11L657.95,923.74L679.16,919.39L701.97,904.60L721.42,910.10L746.41,899.54L746.96,883.60L760.00,887.85ZM114.65,-558.27L137.61,-562.56L142.95,-561.71L155.65,-564.42L165.62,-564.73L182.11,-562.86L183.76,-555.28L169.08,-551.84L155.13,-551.97L136.15,-551.89L133.03,-550.08L146.80,-550.56L148.87,-546.57L162.84,-549.40L158.00,-545.55L140.63,-539.33L159.15,-543.04L186.94,-546.52L196.46,-544.04L191.79,-539.10L159.07,-531.12L151.73,-528.29L132.55,-526.75L142.85,-525.59L121.45,-515.86L102.89,-506.55L78.07,-488.67L70.98,-476.71L59.94,-476.72L42.11,-471.84L41.66,-460.83L23.53,-443.67L13.68,-442.52L2.97,-423.05L-15.51,-423.36L-16.60,-413.20L-27.64,-405.38L-42.30,-403.21L-52.72,-404.62L-60.24,-387.20L-71.17,-376.23L-75.93,-388.80L-86.56,-383.00L-82.77,-375.12L-87.52,-357.80L-104.10,-335.80L-123.98,-333.51L-120.49,-345.07L-115.24,-361.80L-130.11,-343.79L-152.43,-331.89L-132.75,-326.03L-122.39,-322.10L-166.69,-302.78L-207.81,-286.45L-236.92,-283.83L-243.93,-286.46L-259.97,-278.54L-294.44,-253.20L-322.36,-240.41L-326.41,-241.51L-337.73,-239.18L-348.41,-237.70L-365.60,-224.10L-381.68,-205.19L-397.62,-189.29L-418.32,-174.44L-433.54,-151.34L-450.55,-130.80L-469.42,-106.63L-471.93,-112.52L-458.06,-141.77L-458.09,-151.68L-447.80,-170.07L-429.13,-197.16L-403.65,-233.90L-390.00,-250.94L-370.94,-272.03L-349.97,-296.89L-333.57,-311.99L-325.17,-321.33L-297.73,-343.70L-288.29,-348.17L-277.60,-356.13L-257.44,-371.92L-267.23,-366.88L-271.19,-364.93L-274.93,-363.84L-266.73,-372.81L-249.57,-386.22L-235.85,-395.76L-235.23,-394.49L-241.10,-385.80L-225.38,-401.03L-216.68,-408.86L-220.65,-407.77L-214.20,-413.56L-189.06,-428.70L-179.16,-435.97L-160.47,-448.57L-131.37,-466.77L-120.77,-473.81L-108.99,-479.99L-92.66,-490.33L-90.15,-492.82L-89.83,-494.13L-89.70,-494.85L-79.96,-499.68L-61.20,-508.43L-55.23,-510.72L-55.14,-510.24L-44.66,-515.58L-31.22,-521.25L-20.83,-525.39L-10.49,-528.93L2.00,-532.56L12.57,-536.18L23.43,-540.63L34.89,-544.15L55.79,-549.59L59.47,-550.19L72.79,-554.18L81.85,-555.88L88.76,-556.56L91.94,-556.03L83.81,-553.11L103.67,-557.33L96.08,-553.64L96.09,-552.65L90.38,-549.18L101.86,-554.62L114.65,-558.27ZM533.58,781.77L541.34,796.12L551.23,805.90L539.83,822.05L525.86,815.37L504.65,818.48L477.97,814.82L463.47,817.03L456.82,825.69L445.51,817.64L439.14,834.25L454.63,850.86L461.51,861.88L475.95,874.29L487.86,881.11L499.64,894.72L526.98,904.52L523.60,910.85L494.54,901.60L476.47,890.78L447.82,882.67L421.24,857.38L427.57,854.16L413.12,839.03L412.42,826.00L392.15,820.84L382.58,838.04L373.19,825.36L373.83,811.66L374.95,810.98L396.90,811.46L402.60,804.47L413.34,810.40L425.65,810.42L425.41,799.31L436.22,794.49L439.01,777.94L463.52,765.14L473.44,769.32L496.84,784.41L522.33,789.17L533.58,781.77ZM452.01,751.64L461.65,723.74L455.47,714.96L472.73,713.44L474.55,695.65L490.38,705.24L501.73,708.77L526.91,700.67L528.98,691.76L540.82,689.00L555.02,680.40L558.35,682.71L571.96,675.35L578.31,664.16L587.74,660.05L619.52,667.96L625.38,662.49L641.97,671.11L644.65,682.04L627.66,694.18L615.37,724.83L598.79,755.51L575.24,767.00L556.46,768.05L533.58,781.77L522.33,789.17L496.84,784.41L473.44,769.32L463.52,765.14L457.22,751.69L452.01,751.64ZM-163.21,372.48L-165.49,405.52L-189.83,439.80L-233.79,452.01L-262.67,434.27L-236.89,396.06L-238.18,348.22L-202.14,323.19L-181.36,307.20L-182.30,332.44L-191.90,354.97L-178.24,358.40L-163.21,372.48ZM1207.45,642.73L1213.97,625.70L1220.42,603.27L1224.06,594.13L1227.03,583.84L1230.21,575.50L1233.23,569.97L1235.91,560.69ZM1115.01,854.30L1118.89,846.38L1115.43,851.34L1122.46,837.37L1122.04,832.78L1111.40,842.20L1108.77,835.63L1116.18,817.27L1124.26,802.88L1126.40,792.30L1119.75,795.98L1116.76,779.95L1112.52,769.74L1116.25,759.62L1115.40,736.23L1125.32,719.28L1126.47,726.43L1131.68,730.40L1139.81,723.60L1144.26,717.61L1159.86,682.69L1164.14,675.46L1166.53,678.25L1161.43,695.02L1166.33,697.95L1169.06,693.14L1169.55,704.95L1177.85,695.32L1182.03,695.58L1193.14,677.79L1205.81,648.98L1207.45,642.73ZM1119.75,795.98L1126.40,792.30L1124.26,802.88L1116.18,817.27L1108.77,835.63L1111.40,842.20L1122.04,832.78L1122.46,837.37L1115.43,851.34L1118.89,846.38L1115.01,854.30ZM1066.15,923.49L1041.90,936.56L1023.48,947.28L1005.27,960.20L1005.77,944.56L1048.60,892.96L1060.88,863.07L1062.84,848.85L1072.46,835.51L1082.86,814.12L1089.86,804.34L1105.91,790.27L1109.66,790.78L1116.76,779.95L1119.75,795.98ZM-121.58,-189.96L-137.75,-167.67L-136.09,-139.68L-168.95,-115.37L-220.68,-100.04L-235.15,-96.60L-247.82,-107.04L-271.52,-128.99L-251.54,-140.59L-262.48,-164.99L-240.56,-165.38L-234.36,-175.41L-249.35,-189.93L-227.79,-208.86L-209.70,-209.18L-209.09,-182.06L-180.23,-195.96L-171.96,-182.75L-140.94,-196.67L-121.58,-189.96ZM944.91,999.09L939.65,1006.90L933.28,1009.32L925.18,1023.37L929.51,1021.90L923.59,1027.52L921.13,1032.31L931.29,1023.92L929.32,1029.76L909.13,1059.72L906.93,1043.07L914.84,1034.05L913.80,1034.02L921.93,1022.85L930.36,1007.16L934.66,1000.74L935.27,1000.19L941.95,995.78L944.75,991.37L950.11,987.54L948.10,994.72L944.57,999.23L944.91,999.09ZM431.04,1051.10L419.39,1072.66L423.83,1080.17L417.01,1093.31L393.53,1085.56L377.76,1083.62L334.29,1071.79L338.73,1058.18L375.40,1059.66L407.34,1055.12L431.04,1051.10ZM232.40,964.38L251.47,987.90L247.36,1027.25L233.06,1024.64L220.41,1033.33L208.45,1024.91L206.73,988.91L199.41,970.43L216.70,973.32L232.40,964.38ZM332.61,760.23L377.54,770.02L374.28,790.28L381.94,807.12L356.82,802.04L331.19,816.55L332.96,835.97L329.09,846.96L339.51,866.14L369.28,884.14L385.26,913.18L420.41,939.00L445.07,936.97L452.69,943.71L443.86,951.04L471.80,960.23L494.52,967.36L520.72,980.20L523.79,985.45L517.83,996.99L501.04,985.17L474.19,983.21L460.80,1004.16L483.02,1012.69L479.01,1028.03L466.04,1031.09L448.91,1056.13L435.94,1059.30L436.25,1051.13L442.91,1035.87L449.79,1029.27L437.90,1013.62L428.54,999.34L415.54,996.46L406.36,983.71L386.10,979.03L372.46,966.72L349.00,965.25L324.20,950.68L295.13,928.45L273.54,907.84L263.71,871.66L247.98,866.71L222.38,852.96L207.87,857.11L189.63,872.97L176.61,874.53L180.30,858.81L163.44,852.49L155.80,822.20L166.73,811.38L157.87,795.66L159.36,784.47L172.51,794.30L187.52,793.66L205.19,781.27L210.51,788.05L225.42,787.67L232.39,771.58L255.50,777.77L269.38,771.30L271.99,754.34L290.94,760.70L294.62,752.81L325.59,745.68L332.61,760.23ZM939.65,1006.90L944.91,999.09L963.95,990.83L1005.77,944.56L1005.27,960.20L1001.04,965.46L962.07,1001.85L973.52,1003.46L966.46,1010.61L961.20,1017.77L946.32,1030.28L939.39,1038.57L929.15,1048.59L908.81,1061.25L909.13,1059.72L929.32,1029.76L931.29,1023.92L935.99,1017.19L939.65,1006.90ZM1258.65,350.46L1257.63,348.24L1255.78,370.93L1253.77,388.93L1250.42,378.77L1247.42,379.33L1240.35,379.73L1239.37,379.70L1228.62,427.51L1230.89,521.24L1227.95,529.50L1224.35,519.89L1220.09,522.05L1212.06,542.89L1208.55,557.48L1208.26,552.03L1210.26,537.90L1208.78,531.39L1199.30,537.98L1194.56,519.28L1189.23,519.41L1188.35,510.52L1197.13,500.57L1195.85,479.11L1202.40,463.60L1209.46,456.79L1207.79,426.51L1204.09,410.52L1196.60,424.07L1188.50,426.96L1179.95,454.50L1171.71,472.42L1165.90,473.65L1164.80,456.24L1154.86,442.41L1146.82,452.04L1133.24,439.33L1135.22,407.13L1130.44,403.38L1131.21,356.81L1146.81,365.76L1142.27,339.53L1152.23,281.33L1165.09,264.94L1187.39,265.27L1198.15,265.84L1200.39,242.00L1207.76,225.52L1217.15,228.06L1215.76,216.47L1220.48,203.83L1217.17,187.82L1205.87,183.17L1204.25,159.83L1200.87,153.48L1200.99,137.23L1191.29,123.26L1188.72,109.19L1192.54,68.48L1190.19,57.69L1187.34,28.41L1182.26,10.66L1184.08,3.44L1195.60,27.87L1191.70,13.92L1193.27,13.03L1198.93,27.12L1196.42,18.55L1180.71,-21.91L1184.92,-11.98L1188.57,-2.91ZM593.75,914.13L592.36,921.17L588.56,921.60L586.61,909.87L579.43,907.69L573.01,899.63L578.64,890.93L585.82,887.17L589.91,874.79L595.27,871.86L599.54,876.06L605.12,877.20L609.04,882.01L613.92,882.68L619.69,887.93L623.88,886.88L620.57,895.86L617.03,900.61L618.00,902.93L611.37,905.56L593.75,914.13ZM950.11,987.54L944.75,991.37L941.95,995.78L935.27,1000.19L946.80,980.30L960.26,959.85L960.80,958.90L969.31,953.86L970.44,959.38L957.90,974.02L950.11,987.54ZM395.73,1282.99L376.82,1286.00L362.48,1283.96L320.66,1282.47L308.87,1278.65L287.43,1275.15L274.91,1275.93L264.87,1271.61L263.49,1268.34L246.57,1261.44L257.15,1258.42L254.15,1252.33L257.24,1246.96L254.80,1241.91L259.16,1232.67L257.23,1226.77L247.11,1214.35L261.18,1211.83L263.44,1205.73L260.03,1199.23L280.18,1193.91L289.23,1188.90L303.74,1184.31L305.32,1170.68L340.74,1176.83L353.40,1175.02L378.43,1177.08L417.69,1182.36L430.52,1195.70L456.49,1196.05L496.48,1197.05L525.66,1199.32L540.05,1193.11L554.75,1183.70L550.13,1172.97L560.28,1163.14L581.97,1150.75L601.78,1143.94L638.79,1138.09L646.64,1143.24L656.73,1140.43L664.70,1140.76L690.68,1134.43L695.76,1137.69L684.36,1148.36L686.64,1153.48L677.37,1164.55L681.61,1172.79L664.95,1210.87ZM520.40,1271.77L423.03,1277.77L395.73,1282.99ZM617.92,389.86L614.31,378.02L615.42,364.54L602.98,358.61L574.58,353.84L564.29,313.94L591.73,295.53L634.13,292.64L657.40,284.09L662.48,293.36L675.87,294.14L702.98,312.55L708.97,333.01L691.58,351.96L690.02,379.49L665.13,402.34L640.08,406.39L631.96,392.84L617.92,389.86ZM141.00,603.85L146.46,614.69L143.93,634.31L135.27,634.39L128.78,629.80L133.19,604.79L141.00,603.85ZM564.29,313.94L560.74,277.46L569.12,245.78L589.92,226.64L614.87,259.75L634.24,255.98L632.52,218.91L650.92,207.56L662.18,211.69L685.47,225.66L704.23,222.29L717.38,230.84L724.14,252.89L737.19,278.64L715.92,301.80L702.98,312.55L675.87,294.14L662.48,293.36L657.40,284.09L634.13,292.64L591.73,295.53L564.29,313.94ZM-173.40,1018.82L-156.91,1034.48L-133.12,1042.70L-105.57,1057.53L-94.12,1061.82L-82.01,1078.66L-78.32,1091.34L-65.34,1114.18L-57.59,1120.27L-60.93,1125.40L-94.10,1116.25L-103.94,1118.01L-117.99,1113.69L-115.56,1124.86L-141.88,1118.66L-148.28,1121.75L-165.78,1116.48L-187.45,1107.18L-217.90,1097.64L-209.96,1112.08L-213.12,1110.23L-213.12,1110.23L-209.03,1116.48L-221.44,1109.23L-226.34,1107.67L-235.35,1101.95L-243.38,1095.94L-258.77,1086.21L-259.06,1090.08L-264.28,1086.70ZM-308.47,1051.69L-299.97,1057.05L-296.63,1054.27L-296.40,1054.36L-290.13,1056.62L-273.59,1067.76L-263.17,1069.56L-255.04,1072.59L-243.49,1071.86L-256.35,1050.17L-253.40,1041.05L-253.48,1033.74L-243.14,1029.65L-223.03,1033.26L-207.93,1033.98L-196.58,1020.49L-191.38,1010.71L-173.40,1018.82ZM750.89,642.76L756.61,634.92L773.48,625.91L793.49,633.07L804.00,631.33L816.29,638.52L815.73,652.68L825.32,656.08L830.25,671.22L839.59,677.98L838.29,684.33L843.14,686.52L836.86,691.73L822.17,695.84L819.34,691.38L814.30,696.26L816.55,702.52L810.40,717.03L806.69,731.47L800.45,737.72L794.90,722.04L796.61,704.79L794.61,687.98L777.97,669.02L768.35,654.41L759.24,644.57L750.89,642.76ZM588.56,921.60L592.36,921.17L593.75,914.13L611.37,905.56L618.00,902.93L628.05,898.89L641.64,895.40L656.14,902.77L657.95,923.74L652.41,926.11L647.54,932.75L631.73,935.71L620.40,945.01L600.97,951.73L588.72,946.43L584.65,933.45L588.56,921.60ZM-145.15,1164.43L-111.71,1180.59L-22.15,1227.39ZM400.06,1112.44L399.01,1113.25L396.04,1113.39L393.48,1112.37L393.51,1109.93L396.49,1110.25L399.18,1111.73L400.06,1112.44ZM392.37,1108.86L390.51,1109.32L388.69,1108.71L388.28,1108.31L390.84,1107.82L392.09,1108.07L392.60,1108.65L392.37,1108.86ZM564.87,904.02L562.94,897.86L549.75,916.76L551.75,927.11L545.38,925.51L536.85,915.78L523.60,910.85L526.98,904.52L531.42,884.60L541.32,874.90L547.00,870.79L555.13,875.73L559.60,879.97L569.57,882.18L581.10,887.52L578.64,890.93L573.01,899.63L564.87,904.02ZM-262.40,1088.48L-198.27,1130.42L-208.60,1114.80L-111.71,1180.59L-145.15,1164.43ZM232.36,1287.75L320.66,1282.47L362.48,1283.96L376.82,1286.00L395.73,1282.99L400.13,1289.31L409.31,1289.43ZM150.79,444.69L174.22,447.91L178.67,464.62L169.25,507.94L160.98,525.20L143.54,523.69L145.85,573.13L130.30,560.73L113.15,538.40L85.87,544.92L65.29,538.53L80.88,527.71L110.89,461.12L150.79,444.69ZM542.65,-328.67L593.72,-309.59L581.48,-299.84L606.11,-281.15L589.26,-265.82L579.22,-261.73L574.70,-285.35L551.43,-296.74L534.41,-284.30L536.54,-259.36L527.42,-243.10L508.17,-250.46L488.38,-247.59L466.33,-265.01L459.23,-255.52L449.79,-253.68L452.33,-230.28L420.30,-234.91L418.96,-214.50L402.56,-214.15L394.04,-187.08L379.47,-143.15L352.11,-84.45L360.11,-69.95L353.52,-52.70L332.70,-53.28L319.04,-11.80L320.40,48.75L335.38,72.32L327.95,128.06L307.37,161.03L295.94,188.90L279.70,158.92L227.53,213.68L192.68,223.48L159.86,196.57L156.44,144.34L162.04,36.02L185.91,7.98L246.49,-27.31L290.21,-71.56L327.41,-129.82L368.65,-205.87L394.55,-234.07L431.38,-278.90L460.66,-294.56L484.98,-293.93L497.24,-321.13L522.09,-321.15L542.65,-328.67ZM424.14,-486.55L409.90,-478.67L393.41,-482.71L397.09,-487.47L389.92,-493.02L404.19,-496.71L410.61,-490.31L424.14,-486.55ZM362.56,-516.05L390.20,-504.81L374.20,-498.09L373.89,-485.18L367.55,-481.64L367.14,-465.61L356.27,-464.72L335.56,-476.57L342.64,-483.25L329.77,-488.45L314.38,-502.88L309.53,-515.14L327.85,-520.38L331.92,-515.26L341.61,-515.50L343.24,-520.50L352.69,-521.06L362.56,-516.05ZM402.86,-526.63L418.51,-522.04L415.18,-514.05L396.94,-511.91L375.65,-514.16L372.73,-518.22L363.17,-518.38L354.01,-524.83L371.45,-528.77L381.94,-525.64L385.62,-529.72L402.86,-526.63ZM411.26,564.82L398.29,535.24L400.17,518.74L392.25,493.39L381.25,476.56L389.03,463.37L381.68,438.84L400.80,423.82L443.89,399.04L477.85,380.14L505.86,386.08L508.87,397.74L535.31,395.72L569.17,397.34L617.92,389.86L631.96,392.84L640.08,406.39L643.85,427.04L653.34,443.59L655.43,462.19L640.54,474.52L651.18,494.51L653.88,514.86L671.53,551.79L669.84,564.93L656.74,572.81L634.52,614.44L643.25,632.73L636.90,631.35L608.69,619.24L588.41,628.79L574.44,626.28L557.73,638.20L542.06,624.34L530.25,631.88L528.44,629.38L513.72,608.71L491.55,608.18L488.09,594.13L467.49,590.72L463.50,602.94L446.90,594.62L448.32,581.77L425.85,579.12L411.26,564.82ZM-277.86,813.09L-269.76,809.27L-260.47,809.21L-254.50,827.30L-240.67,833.70L-236.67,831.60L-222.69,838.88L-215.61,857.39L-226.55,860.73L-225.93,883.68L-229.60,886.13L-229.77,899.10L-239.83,896.58L-229.15,917.49L-234.08,931.74L-225.16,943.29L-227.65,948.61L-235.20,953.64L-232.21,962.63L-240.63,964.10L-253.13,954.52L-264.31,950.89L-263.51,933.91L-267.42,917.35L-277.63,909.61L-283.90,896.90L-283.70,880.43L-275.59,875.22L-274.72,864.72L-270.89,849.82L-271.86,837.03L-276.66,823.92L-277.86,813.09ZM644.65,682.04L656.33,670.56L674.02,671.57L691.84,667.75L705.34,674.89L714.20,666.26L733.82,657.22L739.74,645.76L750.89,642.76L759.24,644.57L768.35,654.41L777.97,669.02L794.61,687.98L796.61,704.79L794.90,722.04L800.45,737.72L812.20,740.65L823.76,730.49L835.41,732.68L836.45,741.88L824.69,754.17L816.88,753.54L811.13,798.96L795.89,800.65L776.50,794.19L745.16,812.26L731.79,825.26L690.79,834.43L668.80,834.17L657.68,839.38L649.08,826.28L643.62,820.99L650.20,813.28L642.93,810.16L633.97,820.43L616.60,812.93L613.88,797.68L595.59,791.84L591.89,779.97L575.24,767.00L598.79,755.51L615.37,724.83L627.66,694.18L644.65,682.04ZM617.92,389.86L569.17,397.34L535.31,395.72L539.50,373.77L574.58,353.84L602.98,358.61L615.42,364.54L614.31,378.02L617.92,389.86ZM825.18,-357.38L824.39,-354.21L801.61,-351.70L788.07,-362.29L769.05,-366.08L753.79,-379.03L754.78,-385.53L739.97,-398.12L728.63,-419.23L720.09,-420.84L708.96,-441.20L695.05,-449.78L690.89,-461.44L686.16,-475.12L692.20,-480.54L686.49,-487.55L687.86,-490.78L701.20,-485.21L708.68,-479.86L713.04,-469.04L716.15,-458.20L730.23,-437.41L750.37,-415.87L768.55,-392.80L792.37,-373.84L825.18,-357.38ZM681.85,-514.33L692.91,-509.04L684.97,-512.21L677.75,-513.58ZM1188.57,-2.91L1184.92,-11.98L1180.71,-21.91L1196.42,18.55L1198.93,27.12L1193.27,13.03L1191.70,13.92L1195.60,27.87L1184.08,3.44L1182.26,10.66L1187.34,28.41L1190.19,57.69L1192.54,68.48L1188.72,109.19L1191.29,123.26L1200.99,137.23L1200.87,153.48L1204.25,159.83L1205.87,183.17L1217.17,187.82L1220.48,203.83L1215.76,216.47L1217.15,228.06L1207.76,225.52L1200.39,242.00L1198.15,265.84L1187.39,265.27L1165.09,264.94L1152.23,281.33L1142.27,339.53L1146.81,365.76L1131.21,356.81L1130.44,403.38L1135.22,407.13L1133.24,439.33L1146.82,452.04L1154.86,442.41L1164.80,456.24L1165.90,473.65L1171.71,472.42L1169.10,496.30L1159.23,513.55L1150.39,557.66L1162.20,573.65L1161.58,594.14L1173.21,611.33L1166.53,630.33L1164.38,639.41L1159.54,643.85L1152.16,637.23L1148.83,640.22L1141.26,642.52L1137.49,635.24L1125.30,641.90L1117.03,654.58L1114.57,651.57L1094.58,655.45L1071.42,669.64L1057.28,675.13L1055.31,680.35L1032.06,669.34L1010.40,670.60L992.61,660.73L1006.24,646.89L1019.27,608.38L1007.57,600.69L1032.65,569.66L1031.26,562.15L1015.91,577.90L1014.56,561.47L1022.49,545.68L1038.93,532.44L1039.86,518.61L1033.01,500.70L1036.57,476.93L1034.42,466.04L1006.91,468.53L996.53,474.71L981.90,462.32L968.61,475.86L941.30,473.44L940.30,465.25L929.90,450.61L913.28,455.43L909.17,443.16L912.67,432.61L894.80,413.86L873.73,426.06L866.77,426.21L863.10,437.93L854.56,439.01L843.97,412.96L835.99,400.05L839.43,394.59L857.28,390.39L863.61,378.05L855.04,368.44L838.93,365.34L838.54,356.95L828.02,351.55L808.06,326.23L810.06,312.80L803.16,292.26L779.43,287.01L768.99,295.34L763.37,284.75L737.19,278.64L724.14,252.89L717.38,230.84L704.23,222.29L710.57,205.76L694.16,163.99L703.01,134.90L697.82,127.54L714.70,98.37L687.53,80.86L712.84,17.60L721.61,-10.05L720.63,-32.59L684.23,-56.64L681.66,-84.32L655.15,-111.95L653.36,-146.87L617.53,-187.54L620.19,-216.42L587.33,-237.60L579.22,-261.73L589.25,-265.82L606.11,-281.15L613.71,-293.56L645.54,-276.59L684.31,-273.30L752.84,-244.11L772.05,-230.29L787.34,-208.28L785.20,-187.39L769.88,-173.65L693.83,-190.17L685.45,-184.01L722.42,-160.90L731.84,-143.81L751.27,-105.08L776.25,-97.23L792.63,-89.76L785.40,-108.74L768.59,-123.17L770.43,-139.19L815.73,-123.58L821.76,-135.24L798.05,-159.56L805.46,-200.18L817.18,-200.76L835.29,-191.69L825.90,-216.09L803.47,-233.25L794.72,-253.41L772.81,-271.02L807.74,-267.37L826.53,-251.63L817.38,-244.66L830.52,-227.06L846.31,-218.24L855.74,-229.44L842.55,-249.82L848.41,-269.33L852.05,-301.85L858.27,-302.22L867.42,-283.15L878.31,-283.31L873.97,-294.45L884.17,-299.69L881.09,-314.01L902.44,-301.15L890.12,-320.71L869.98,-332.83L863.46,-341.98L883.53,-340.78L896.60,-336.33L935.96,-317.81L923.91,-331.55L907.99,-341.36L902.33,-346.12L896.73,-345.80L884.93,-357.21L862.33,-373.47L853.46,-380.36L833.18,-402.24L809.20,-421.13L805.30,-425.83L817.76,-424.25L833.59,-414.03L854.42,-396.73L864.05,-391.34L883.24,-377.64L918.72,-348.17L935.27,-337.30L951.44,-321.52L983.81,-283.40L988.26,-283.32L980.11,-292.89L974.66,-301.88L963.04,-313.75L951.92,-326.47L937.77,-337.44L921.55,-352.60L918.70,-352.01L904.20,-363.29L878.66,-385.40L855.25,-399.47L839.01,-415.11L819.11,-427.95L819.05,-429.00L834.88,-419.56L860.70,-400.74L866.38,-398.92L846.70,-411.93L837.19,-421.54L836.51,-425.30L851.48,-417.76L829.57,-431.15L800.64,-449.03L795.30,-454.17L795.97,-455.99L791.26,-460.23L777.75,-467.35L759.35,-477.98L757.91,-479.33L743.05,-487.71L736.88,-491.41L729.24,-495.20L723.48,-498.14L728.09,-495.87L710.87,-503.82L708.07,-504.73L696.69,-509.91L684.21,-515.22L669.56,-520.82L674.17,-518.19L683.04,-514.84L681.85,-514.33ZM652.87,-527.45L671.77,-520.93L634.39,-535.20L630.34,-536.57L631.08,-536.21L642.00,-531.63L652.87,-527.45ZM529.77,-533.10L527.64,-531.17L525.73,-530.01L529.08,-527.90L527.87,-525.47L517.49,-528.25L512.80,-532.29L502.34,-532.18L506.75,-534.81L512.78,-535.28L519.99,-532.08L516.64,-535.10L516.40,-537.24L527.48,-535.01L529.77,-533.10ZM645.51,-531.20L651.33,-529.07L645.76,-530.95L635.95,-534.24L615.64,-541.06L610.20,-542.53L589.70,-549.48L582.37,-551.95L595.74,-548.13L620.79,-540.05L645.51,-531.20ZM-209.03,1116.48L-213.12,1110.23L-209.96,1112.08L-209.50,1112.85L-208.60,1114.80L-198.27,1130.42L-262.40,1088.48ZM-264.28,1086.70L-259.06,1090.08L-258.77,1086.21L-243.38,1095.94L-235.35,1101.95L-226.34,1107.67L-221.44,1109.23L-209.03,1116.48ZM918.12,1078.22L914.67,1079.95L913.32,1077.57L908.03,1076.82L903.26,1075.49L893.54,1082.03L900.40,1073.24L903.67,1068.17L908.81,1061.25L929.15,1048.59L939.39,1038.57L946.32,1030.28L961.20,1017.77L966.46,1010.61L973.52,1003.46L962.07,1001.85L1001.04,965.46L1005.27,960.20L1023.48,947.28L1041.90,936.56L1066.15,923.49ZM595.59,791.84L613.88,797.68L616.60,812.93L633.97,820.43L642.93,810.16L650.20,813.28L643.62,820.99L649.08,826.28L642.06,836.11L644.88,848.73L659.14,860.86L648.16,874.23L643.28,886.24L646.44,889.57L641.64,895.40L628.05,898.89L618.00,902.93L617.03,900.61L620.57,895.86L623.88,886.88L619.69,887.93L613.92,882.68L609.04,882.01L605.12,877.20L599.54,876.06L595.27,871.86L589.91,874.79L585.82,887.17L578.64,890.93L581.10,887.52L569.57,882.18L559.60,879.97L555.13,875.73L547.00,870.79L554.16,868.12L558.39,850.29L543.53,838.14L550.86,820.38L539.83,822.05L551.23,805.90L541.34,796.12L533.58,781.77L556.46,768.05L575.24,767.00L591.89,779.97L595.59,791.84ZM528.44,629.38L530.25,631.88L542.06,624.34L557.73,638.20L574.44,626.28L588.41,628.79L608.69,619.24L636.90,631.35L629.82,644.11L625.38,662.49L619.52,667.96L587.74,660.05L578.31,664.16L571.96,675.35L558.35,682.71L555.02,680.40L540.82,689.00L528.98,691.76L526.91,700.67L501.73,708.77L490.38,705.24L474.55,695.65L471.05,680.82L473.31,675.04L477.29,664.97L490.70,664.49L500.80,658.90L501.45,654.70L507.10,652.00L508.62,641.67L515.38,639.00L519.61,630.44L528.44,629.38ZM377.54,770.02L403.44,772.14L419.07,761.93L446.24,759.09L452.01,751.64L457.22,751.69L463.52,765.14L439.01,777.94L436.22,794.49L425.41,799.31L425.65,810.42L413.34,810.40L402.60,804.47L396.90,811.46L374.95,810.98L381.94,807.12L374.28,790.28L377.54,770.02ZM514.89,-130.00L502.81,-100.29L510.96,-74.87L485.03,-38.23L449.29,2.12L439.67,67.32L459.43,99.43L484.83,124.21L468.16,179.61L443.18,192.42L439.04,274.87L426.51,321.69L393.39,318.29L379.08,357.86L346.96,360.78L337.72,314.20L315.06,258.30L295.94,188.90L307.37,161.03L327.95,128.06L335.38,72.32L320.40,48.75L319.04,-11.80L332.70,-53.28L353.52,-52.70L360.11,-69.95L352.11,-84.45L379.47,-143.15L394.04,-187.08L402.56,-214.15L418.96,-214.50L420.30,-234.91L452.33,-230.28L449.79,-253.68L459.23,-255.52L484.54,-239.36L516.41,-216.38L533.09,-158.39L543.17,-143.59L514.89,-130.00ZM453.98,257.08L458.06,259.74L441.17,317.22L438.29,298.79L453.98,257.08ZM510.21,224.95L497.73,241.00L499.29,250.99L503.66,250.78L502.88,254.32L496.56,258.03L497.46,262.92L491.42,267.20L488.58,277.26L483.14,279.44L484.37,268.61L480.70,261.14L482.28,254.76L480.07,247.53L492.76,227.78L502.28,226.46L503.67,223.78L510.43,223.08L510.21,224.95ZM505.30,-48.95L509.70,-49.53L508.72,-44.46L506.76,-38.33L504.03,-38.67L505.60,-44.19L504.69,-47.00L505.30,-48.95ZM1005.77,944.56L963.95,990.83L944.91,999.09L944.57,999.23L948.10,994.72L950.11,987.54L957.90,974.02L970.44,959.38L969.31,953.86L960.80,958.90L962.63,944.38L969.31,932.31L975.51,923.95L981.64,915.52L984.96,902.19L990.46,902.22L1012.08,880.86L1020.90,877.77L1035.29,866.18L1056.07,841.38L1064.67,834.06L1082.86,814.12L1072.46,835.51L1062.84,848.85L1060.88,863.07L1048.60,892.96L1005.77,944.56ZM409.31,1289.43L400.13,1289.31L395.73,1282.99L423.03,1277.77L520.40,1271.77ZM1235.91,560.69L1233.23,569.97L1230.21,575.50L1227.03,583.84L1224.06,594.13L1220.42,603.27L1213.97,625.70L1207.45,642.73L1208.93,630.56L1213.36,605.51L1208.81,609.15L1212.31,589.59L1207.56,597.72L1210.71,574.29L1217.04,566.93L1223.25,546.92L1219.20,542.42L1217.61,532.04L1211.74,549.59L1210.31,569.35L1208.55,557.48L1212.06,542.89L1220.09,522.05L1224.35,519.89L1227.95,529.50L1230.89,521.24L1236.71,505.43L1236.33,495.61L1240.46,475.77L1244.01,450.49L1248.75,445.51L1248.60,462.68L1249.55,462.26L1252.44,446.88L1253.00,446.51L1252.39,462.45ZM247.11,1214.35L232.93,1185.88L214.19,1177.57L213.67,1173.30L188.57,1160.14L184.98,1145.32L202.96,1135.77L209.35,1118.64L203.68,1096.27L209.55,1084.32L243.07,1076.49L264.92,1080.57L264.19,1093.10L290.49,1084.82L292.74,1089.65L277.31,1101.14L277.25,1111.98L288.02,1117.94L284.20,1136.78L264.28,1146.49L270.32,1157.55L286.03,1158.39L293.80,1167.61L305.32,1170.68L303.74,1184.31L289.23,1188.90L280.18,1193.91L260.03,1199.23L263.44,1205.73L261.18,1211.83L247.11,1214.35ZM999.69,782.22L1026.26,774.89L1047.18,755.21L1061.71,746.22L1081.38,715.69L1097.74,699.92L1111.23,700.24L1113.13,707.34L1110.95,721.54L1120.70,717.47L1125.32,719.28L1115.40,736.23L1116.25,759.62L1112.52,769.74L1116.76,779.95L1109.66,790.78L1105.91,790.27L1089.86,804.34L1082.86,814.12L1064.67,834.06L1056.07,841.38L1035.29,866.18L1020.90,877.77L1012.08,880.86L990.46,902.22L984.96,902.19L981.64,915.52L975.51,923.95L969.31,932.31L963.96,927.22L973.01,913.73L960.50,923.72L944.24,929.28L927.52,951.15L893.93,972.47L877.54,969.88L852.42,981.52L845.50,993.70L828.42,1004.07L806.29,1002.10L778.50,1013.65L765.80,995.09L747.71,987.61L762.24,962.25L746.08,954.68L777.00,916.81L816.91,900.74L828.30,873.64L874.79,857.71L903.36,824.70L929.69,802.76L965.11,782.67L999.69,782.22ZM774.99,909.52L752.10,933.13L744.11,922.00L744.68,915.60L751.22,910.10L760.00,887.85L746.96,883.60L774.41,864.53L796.98,860.99L799.90,872.11L822.03,873.70L817.21,883.01L786.51,896.15L774.99,909.52ZM854.56,439.01L863.09,437.93L866.77,426.21L873.73,426.06L894.80,413.86L912.67,432.61L909.17,443.16L913.28,455.43L929.90,450.61L940.30,465.25L941.30,473.44L968.61,475.86L981.90,462.32L996.53,474.71L1006.91,468.53L1034.42,466.04L1036.57,476.93L1033.01,500.70L1039.86,518.61L1038.93,532.44L1022.49,545.68L1014.56,561.47L1015.91,577.90L1001.44,589.56L989.96,608.53L971.67,620.56L955.29,643.30L958.26,664.98L968.94,668.11L989.23,654.60L986.21,669.13L964.41,687.44L936.62,722.33L924.12,721.37L928.16,702.63L903.14,703.65L906.72,694.94L927.19,673.04L920.20,667.70L884.31,673.83L881.58,660.44L860.15,673.83L852.75,698.08L835.41,732.68L823.76,730.49L812.20,740.65L800.45,737.72L806.69,731.47L810.40,717.03L816.55,702.52L814.30,696.26L819.34,691.38L822.17,695.84L836.86,691.73L843.14,686.52L838.29,684.33L839.59,677.98L830.25,671.22L825.32,656.08L815.73,652.68L816.29,638.52L804.00,631.33L793.49,633.07L773.48,625.91L756.61,634.92L750.89,642.76L739.74,645.76L733.82,657.22L714.20,666.26L705.34,674.89L691.84,667.75L674.02,671.57L656.33,670.56L644.65,682.04L641.97,671.11L625.38,662.49L629.82,644.11L636.90,631.35L643.25,632.73L634.52,614.44L656.74,572.81L669.84,564.93L671.53,551.79L653.88,514.86L666.55,510.64L679.74,495.38L699.93,490.14L726.42,487.85L756.04,491.69L775.65,487.42L785.75,491.24L793.69,480.99L801.51,489.41L822.54,480.82L832.44,482.06L830.38,459.76L835.79,447.94L854.56,439.01ZM1252.39,462.45L1253.00,446.51L1252.44,446.88L1249.55,462.26L1248.60,462.68L1248.75,445.51L1244.01,450.49L1240.46,475.77L1236.33,495.61L1236.71,505.43L1230.89,521.24L1228.62,427.51L1239.37,379.70L1240.35,379.73L1247.42,379.33L1250.42,378.77L1253.77,388.93L1255.78,370.93L1257.63,348.24L1258.65,350.46ZM939.65,1006.90L935.99,1017.19L931.29,1023.92L921.13,1032.31L923.59,1027.52L929.51,1021.90L925.18,1023.37L933.28,1009.32L939.65,1006.90Z" fill="#294d73" stroke="#192e45" stroke-width="1.5" stroke-linejoin="round"/>
</svg>